<mxfile host="app.diagrams.net" modified="2024-04-19T05:20:29.879Z" agent="Mozilla/5.0 (Windows NT 10.0; Win64; x64) AppleWebKit/537.36 (KHTML, like Gecko) Chrome/123.0.0.0 Safari/537.36" etag="cXCKE26l53GB6iIB2VgB" version="24.2.5" type="device" pages="2">
  <diagram id="b-JujC2RTr2VxlEHt4AG" name="Page-1">
    <mxGraphModel dx="765" dy="377" grid="1" gridSize="10" guides="1" tooltips="1" connect="1" arrows="1" fold="1" page="1" pageScale="1" pageWidth="1100" pageHeight="850" background="none" math="0" shadow="0">
      <root>
        <mxCell id="0" />
        <mxCell id="1" parent="0" />
        <mxCell id="2b4e8129b02d487f-1" value="PROCESS FLOW INVENORY CHECK PROCESS" style="swimlane;html=1;childLayout=stackLayout;horizontal=1;startSize=20;horizontalStack=0;rounded=0;shadow=0;labelBackgroundColor=none;strokeWidth=1;fontFamily=Verdana;fontSize=8;align=center;fillColor=#DDEAFF;" parent="1" vertex="1">
          <mxGeometry x="30" y="30" width="1200" height="470" as="geometry" />
        </mxCell>
        <mxCell id="2b4e8129b02d487f-2" value="REQUESTOR" style="swimlane;html=1;startSize=20;horizontal=0;fillColor=#A9C4EB;strokeColor=#000000;" parent="2b4e8129b02d487f-1" vertex="1">
          <mxGeometry y="20" width="1200" height="150" as="geometry" />
        </mxCell>
        <mxCell id="XlFy2ayyQ3R-crPquSGV-3" value="" style="group;whiteSpace=wrap;html=1;" parent="2b4e8129b02d487f-2" vertex="1" connectable="0">
          <mxGeometry x="50" y="30" width="120" height="90" as="geometry" />
        </mxCell>
        <mxCell id="XlFy2ayyQ3R-crPquSGV-1" value="&lt;font style=&quot;font-size: 11px;&quot;&gt;Fill-In Template&lt;/font&gt;" style="verticalLabelPosition=middle;verticalAlign=middle;html=1;shape=trapezoid;perimeter=trapezoidPerimeter;whiteSpace=wrap;size=0.23;arcSize=10;flipV=1;labelPosition=center;align=center;" parent="XlFy2ayyQ3R-crPquSGV-3" vertex="1">
          <mxGeometry y="30" width="120" height="60" as="geometry" />
        </mxCell>
        <mxCell id="XlFy2ayyQ3R-crPquSGV-2" value="01" style="rounded=0;whiteSpace=wrap;html=1;" parent="XlFy2ayyQ3R-crPquSGV-3" vertex="1">
          <mxGeometry y="10" width="120" height="20" as="geometry" />
        </mxCell>
        <mxCell id="8qgpRiIwpdJoQYGnGEqY-1" value="&lt;span style=&quot;font-size: 10px;&quot;&gt;Specifying the destination, details (e.g., TO - SAN PABLO - 23DB - 0900)&lt;/span&gt;" style="verticalLabelPosition=middle;verticalAlign=middle;shape=process;rounded=1;size=0.14;arcSize=6;fillColor=#D4E1F5;whiteSpace=wrap;html=1;labelPosition=center;align=center;" parent="2b4e8129b02d487f-2" vertex="1">
          <mxGeometry x="215" y="52" width="125" height="75" as="geometry" />
        </mxCell>
        <mxCell id="YS2I8TjbW_x3IqDGsHhf-3" style="edgeStyle=orthogonalEdgeStyle;rounded=0;orthogonalLoop=1;jettySize=auto;html=1;entryX=0;entryY=0.5;entryDx=0;entryDy=0;" parent="2b4e8129b02d487f-2" source="XlFy2ayyQ3R-crPquSGV-1" target="8qgpRiIwpdJoQYGnGEqY-1" edge="1">
          <mxGeometry relative="1" as="geometry" />
        </mxCell>
        <mxCell id="WRHhXZL2VoOWxIxwP3MJ-2" style="edgeStyle=orthogonalEdgeStyle;rounded=0;orthogonalLoop=1;jettySize=auto;html=1;entryX=-0.01;entryY=0.559;entryDx=0;entryDy=0;entryPerimeter=0;" parent="2b4e8129b02d487f-2" edge="1">
          <mxGeometry relative="1" as="geometry">
            <mxPoint x="1071" y="93.83333333333337" as="sourcePoint" />
          </mxGeometry>
        </mxCell>
        <mxCell id="nf94woxg1OOj-iajvkGI-2" style="edgeStyle=orthogonalEdgeStyle;rounded=0;orthogonalLoop=1;jettySize=auto;html=1;entryX=0;entryY=0.5;entryDx=0;entryDy=0;" parent="2b4e8129b02d487f-2" edge="1">
          <mxGeometry relative="1" as="geometry">
            <mxPoint x="1470.1999999999998" y="90" as="sourcePoint" />
          </mxGeometry>
        </mxCell>
        <mxCell id="XmibfNAGc9fPzSoIQCAj-1" value="" style="group;whiteSpace=wrap;html=1;" parent="2b4e8129b02d487f-2" vertex="1" connectable="0">
          <mxGeometry x="385" y="30" width="120" height="90" as="geometry" />
        </mxCell>
        <mxCell id="XmibfNAGc9fPzSoIQCAj-2" value="&lt;font style=&quot;font-size: 10px;&quot;&gt;Send Email&amp;nbsp;&lt;/font&gt;&lt;div&gt;&lt;font style=&quot;font-size: 10px;&quot;&gt;Template&lt;/font&gt;&lt;div&gt;&lt;div&gt;&lt;div&gt;&lt;font style=&quot;font-size: 10px;&quot;&gt;(SRP Price)&lt;/font&gt;&lt;/div&gt;&lt;/div&gt;&lt;/div&gt;&lt;/div&gt;" style="verticalLabelPosition=middle;verticalAlign=middle;html=1;shape=trapezoid;perimeter=trapezoidPerimeter;whiteSpace=wrap;size=0.23;arcSize=10;flipV=1;labelPosition=center;align=center;" parent="XmibfNAGc9fPzSoIQCAj-1" vertex="1">
          <mxGeometry y="30" width="120" height="60" as="geometry" />
        </mxCell>
        <mxCell id="XmibfNAGc9fPzSoIQCAj-3" value="02" style="rounded=0;whiteSpace=wrap;html=1;" parent="XmibfNAGc9fPzSoIQCAj-1" vertex="1">
          <mxGeometry y="10" width="120" height="20" as="geometry" />
        </mxCell>
        <mxCell id="XmibfNAGc9fPzSoIQCAj-4" style="edgeStyle=orthogonalEdgeStyle;rounded=0;orthogonalLoop=1;jettySize=auto;html=1;entryX=0;entryY=0.5;entryDx=0;entryDy=0;" parent="2b4e8129b02d487f-2" source="8qgpRiIwpdJoQYGnGEqY-1" target="XmibfNAGc9fPzSoIQCAj-2" edge="1">
          <mxGeometry relative="1" as="geometry" />
        </mxCell>
        <mxCell id="7hs52SvATBoSB-VHXGyz-4" style="edgeStyle=orthogonalEdgeStyle;rounded=0;orthogonalLoop=1;jettySize=auto;html=1;entryX=0.006;entryY=0.45;entryDx=0;entryDy=0;entryPerimeter=0;" parent="2b4e8129b02d487f-2" edge="1">
          <mxGeometry relative="1" as="geometry">
            <mxPoint x="865" y="90" as="sourcePoint" />
          </mxGeometry>
        </mxCell>
        <mxCell id="XFFCH4LpAKxrjVI6fK1p-1" style="edgeStyle=orthogonalEdgeStyle;rounded=0;orthogonalLoop=1;jettySize=auto;html=1;" parent="2b4e8129b02d487f-2" edge="1">
          <mxGeometry relative="1" as="geometry">
            <mxPoint x="802.0000000000005" y="190" as="sourcePoint" />
          </mxGeometry>
        </mxCell>
        <mxCell id="2b4e8129b02d487f-3" value="JAI" style="swimlane;html=1;startSize=20;horizontal=0;fillColor=#A9C4EB;" parent="2b4e8129b02d487f-1" vertex="1">
          <mxGeometry y="170" width="1200" height="150" as="geometry" />
        </mxCell>
        <mxCell id="YS2I8TjbW_x3IqDGsHhf-1" value="&lt;span style=&quot;font-size: 10px;&quot;&gt;Received Template&lt;/span&gt;" style="verticalLabelPosition=middle;verticalAlign=middle;shape=process;rounded=1;size=0.14;arcSize=6;fillColor=#D4E1F5;whiteSpace=wrap;html=1;labelPosition=center;align=center;" parent="2b4e8129b02d487f-3" vertex="1">
          <mxGeometry x="383" y="52.5" width="125" height="75" as="geometry" />
        </mxCell>
        <mxCell id="Xo_MUFZaIgi4H1vuxM-y-10" style="edgeStyle=orthogonalEdgeStyle;rounded=0;orthogonalLoop=1;jettySize=auto;html=1;entryX=-0.005;entryY=0.544;entryDx=0;entryDy=0;entryPerimeter=0;" parent="2b4e8129b02d487f-3" edge="1">
          <mxGeometry relative="1" as="geometry">
            <mxPoint x="1276" y="93.83333333333348" as="sourcePoint" />
          </mxGeometry>
        </mxCell>
        <mxCell id="SVIuf77oB_ypSjHPxKgo-13" style="edgeStyle=orthogonalEdgeStyle;rounded=0;orthogonalLoop=1;jettySize=auto;html=1;entryX=0;entryY=0.5;entryDx=0;entryDy=0;exitX=1;exitY=0.5;exitDx=0;exitDy=0;" parent="2b4e8129b02d487f-3" source="YS2I8TjbW_x3IqDGsHhf-1" target="SVIuf77oB_ypSjHPxKgo-15" edge="1">
          <mxGeometry relative="1" as="geometry">
            <mxPoint x="509.0000000000002" y="90.5" as="sourcePoint" />
          </mxGeometry>
        </mxCell>
        <mxCell id="SVIuf77oB_ypSjHPxKgo-14" value="" style="group;whiteSpace=wrap;html=1;" parent="2b4e8129b02d487f-3" vertex="1" connectable="0">
          <mxGeometry x="557" y="30" width="120" height="90" as="geometry" />
        </mxCell>
        <mxCell id="SVIuf77oB_ypSjHPxKgo-15" value="&lt;span style=&quot;font-size: 10px;&quot;&gt;Review &amp;amp; Print&lt;/span&gt;&lt;div&gt;&lt;span style=&quot;font-size: 10px;&quot;&gt;Template&lt;/span&gt;&lt;/div&gt;" style="verticalLabelPosition=middle;verticalAlign=middle;html=1;shape=trapezoid;perimeter=trapezoidPerimeter;whiteSpace=wrap;size=0.23;arcSize=10;flipV=1;labelPosition=center;align=center;" parent="SVIuf77oB_ypSjHPxKgo-14" vertex="1">
          <mxGeometry y="30" width="120" height="60" as="geometry" />
        </mxCell>
        <mxCell id="SVIuf77oB_ypSjHPxKgo-16" value="01" style="rounded=0;whiteSpace=wrap;html=1;" parent="SVIuf77oB_ypSjHPxKgo-14" vertex="1">
          <mxGeometry y="10" width="120" height="20" as="geometry" />
        </mxCell>
        <mxCell id="SVIuf77oB_ypSjHPxKgo-17" value="" style="group;whiteSpace=wrap;html=1;" parent="2b4e8129b02d487f-3" vertex="1" connectable="0">
          <mxGeometry x="718" y="30" width="120" height="90" as="geometry" />
        </mxCell>
        <mxCell id="SVIuf77oB_ypSjHPxKgo-18" value="&lt;span style=&quot;font-size: 10px;&quot;&gt;Forward Template&lt;/span&gt;" style="verticalLabelPosition=middle;verticalAlign=middle;html=1;shape=trapezoid;perimeter=trapezoidPerimeter;whiteSpace=wrap;size=0.23;arcSize=10;flipV=1;labelPosition=center;align=center;" parent="SVIuf77oB_ypSjHPxKgo-17" vertex="1">
          <mxGeometry y="30" width="120" height="60" as="geometry" />
        </mxCell>
        <mxCell id="SVIuf77oB_ypSjHPxKgo-19" value="02" style="rounded=0;whiteSpace=wrap;html=1;" parent="SVIuf77oB_ypSjHPxKgo-17" vertex="1">
          <mxGeometry y="10" width="120" height="20" as="geometry" />
        </mxCell>
        <mxCell id="SVIuf77oB_ypSjHPxKgo-20" style="edgeStyle=orthogonalEdgeStyle;rounded=0;orthogonalLoop=1;jettySize=auto;html=1;entryX=0;entryY=0.5;entryDx=0;entryDy=0;" parent="2b4e8129b02d487f-3" source="SVIuf77oB_ypSjHPxKgo-15" target="SVIuf77oB_ypSjHPxKgo-18" edge="1">
          <mxGeometry relative="1" as="geometry" />
        </mxCell>
        <mxCell id="SVIuf77oB_ypSjHPxKgo-21" value="" style="group;whiteSpace=wrap;html=1;" parent="2b4e8129b02d487f-3" vertex="1" connectable="0">
          <mxGeometry x="881" y="30" width="120" height="90" as="geometry" />
        </mxCell>
        <mxCell id="SVIuf77oB_ypSjHPxKgo-22" value="&lt;span style=&quot;font-size: 10px;&quot;&gt;Return Template To Requestor&lt;/span&gt;" style="verticalLabelPosition=middle;verticalAlign=middle;html=1;shape=trapezoid;perimeter=trapezoidPerimeter;whiteSpace=wrap;size=0.23;arcSize=10;flipV=1;labelPosition=center;align=center;" parent="SVIuf77oB_ypSjHPxKgo-21" vertex="1">
          <mxGeometry y="30" width="120" height="60" as="geometry" />
        </mxCell>
        <mxCell id="SVIuf77oB_ypSjHPxKgo-23" value="03" style="rounded=0;whiteSpace=wrap;html=1;" parent="SVIuf77oB_ypSjHPxKgo-21" vertex="1">
          <mxGeometry y="10" width="120" height="20" as="geometry" />
        </mxCell>
        <mxCell id="MYHFU1_YxI-ntXDXYS_k-1" value="ITR Process" style="strokeWidth=2;html=1;shape=mxgraph.flowchart.sequential_data;whiteSpace=wrap;fillColor=#D4E1F5;" parent="2b4e8129b02d487f-3" vertex="1">
          <mxGeometry x="1057" y="43" width="78" height="78" as="geometry" />
        </mxCell>
        <mxCell id="MYHFU1_YxI-ntXDXYS_k-2" style="edgeStyle=orthogonalEdgeStyle;rounded=0;orthogonalLoop=1;jettySize=auto;html=1;entryX=0.038;entryY=0.603;entryDx=0;entryDy=0;entryPerimeter=0;" parent="2b4e8129b02d487f-3" source="SVIuf77oB_ypSjHPxKgo-22" target="MYHFU1_YxI-ntXDXYS_k-1" edge="1">
          <mxGeometry relative="1" as="geometry" />
        </mxCell>
        <mxCell id="2b4e8129b02d487f-4" value="WAREHOUSE MAN" style="swimlane;html=1;startSize=20;horizontal=0;fillColor=#A9C4EB;" parent="2b4e8129b02d487f-1" vertex="1">
          <mxGeometry y="320" width="1200" height="150" as="geometry">
            <mxRectangle y="320" width="1020" height="30" as="alternateBounds" />
          </mxGeometry>
        </mxCell>
        <mxCell id="02pjmeGHb0Z9tMINrXIA-1" value="" style="group;whiteSpace=wrap;html=1;" parent="2b4e8129b02d487f-4" vertex="1" connectable="0">
          <mxGeometry x="718" y="29.999999999999993" width="120" height="90" as="geometry" />
        </mxCell>
        <mxCell id="02pjmeGHb0Z9tMINrXIA-2" value="&lt;font style=&quot;font-size: 11px;&quot;&gt;Check Stock&lt;/font&gt;" style="verticalLabelPosition=middle;verticalAlign=middle;html=1;shape=trapezoid;perimeter=trapezoidPerimeter;whiteSpace=wrap;size=0.23;arcSize=10;flipV=1;labelPosition=center;align=center;" parent="02pjmeGHb0Z9tMINrXIA-1" vertex="1">
          <mxGeometry y="30" width="120" height="60" as="geometry" />
        </mxCell>
        <mxCell id="02pjmeGHb0Z9tMINrXIA-3" value="01" style="rounded=0;whiteSpace=wrap;html=1;" parent="02pjmeGHb0Z9tMINrXIA-1" vertex="1">
          <mxGeometry y="10" width="120" height="20" as="geometry" />
        </mxCell>
        <mxCell id="02pjmeGHb0Z9tMINrXIA-8" style="edgeStyle=orthogonalEdgeStyle;rounded=0;orthogonalLoop=1;jettySize=auto;html=1;entryX=0;entryY=0.5;entryDx=0;entryDy=0;" parent="2b4e8129b02d487f-4" source="02pjmeGHb0Z9tMINrXIA-4" target="02pjmeGHb0Z9tMINrXIA-5" edge="1">
          <mxGeometry relative="1" as="geometry" />
        </mxCell>
        <mxCell id="BHv8QZY68cK9YwL15rHx-2" value="NO" style="edgeLabel;html=1;align=center;verticalAlign=middle;resizable=0;points=[];" parent="02pjmeGHb0Z9tMINrXIA-8" vertex="1" connectable="0">
          <mxGeometry x="-0.0213" relative="1" as="geometry">
            <mxPoint as="offset" />
          </mxGeometry>
        </mxCell>
        <mxCell id="02pjmeGHb0Z9tMINrXIA-4" value="With Stock?" style="strokeWidth=2;html=1;shape=mxgraph.flowchart.decision;whiteSpace=wrap;" parent="2b4e8129b02d487f-4" vertex="1">
          <mxGeometry x="891" y="39.74999999999999" width="100" height="100" as="geometry" />
        </mxCell>
        <mxCell id="02pjmeGHb0Z9tMINrXIA-5" value="&lt;span style=&quot;font-size: 10px;&quot;&gt;Advice Requestor&lt;/span&gt;" style="verticalLabelPosition=middle;verticalAlign=middle;shape=process;rounded=1;size=0.14;arcSize=6;fillColor=#D4E1F5;whiteSpace=wrap;html=1;labelPosition=center;align=center;" parent="2b4e8129b02d487f-4" vertex="1">
          <mxGeometry x="1045" y="52.24999999999999" width="125" height="75" as="geometry" />
        </mxCell>
        <mxCell id="02pjmeGHb0Z9tMINrXIA-7" style="edgeStyle=orthogonalEdgeStyle;rounded=0;orthogonalLoop=1;jettySize=auto;html=1;entryX=0;entryY=0.5;entryDx=0;entryDy=0;entryPerimeter=0;" parent="2b4e8129b02d487f-4" source="02pjmeGHb0Z9tMINrXIA-2" target="02pjmeGHb0Z9tMINrXIA-4" edge="1">
          <mxGeometry relative="1" as="geometry" />
        </mxCell>
        <mxCell id="Xo_MUFZaIgi4H1vuxM-y-7" style="edgeStyle=orthogonalEdgeStyle;rounded=0;orthogonalLoop=1;jettySize=auto;html=1;entryX=0.5;entryY=0;entryDx=0;entryDy=0;" parent="2b4e8129b02d487f-1" edge="1">
          <mxGeometry relative="1" as="geometry">
            <mxPoint x="1213.5" y="147" as="sourcePoint" />
          </mxGeometry>
        </mxCell>
        <mxCell id="YS2I8TjbW_x3IqDGsHhf-2" style="edgeStyle=orthogonalEdgeStyle;rounded=0;orthogonalLoop=1;jettySize=auto;html=1;entryX=0.5;entryY=0;entryDx=0;entryDy=0;" parent="2b4e8129b02d487f-1" source="XmibfNAGc9fPzSoIQCAj-2" target="YS2I8TjbW_x3IqDGsHhf-1" edge="1">
          <mxGeometry relative="1" as="geometry" />
        </mxCell>
        <mxCell id="02pjmeGHb0Z9tMINrXIA-6" style="edgeStyle=orthogonalEdgeStyle;rounded=0;orthogonalLoop=1;jettySize=auto;html=1;entryX=0.5;entryY=0;entryDx=0;entryDy=0;" parent="2b4e8129b02d487f-1" source="SVIuf77oB_ypSjHPxKgo-18" target="02pjmeGHb0Z9tMINrXIA-3" edge="1">
          <mxGeometry relative="1" as="geometry">
            <mxPoint x="738" y="350" as="targetPoint" />
          </mxGeometry>
        </mxCell>
        <mxCell id="02pjmeGHb0Z9tMINrXIA-9" style="edgeStyle=orthogonalEdgeStyle;rounded=0;orthogonalLoop=1;jettySize=auto;html=1;exitX=0.5;exitY=0;exitDx=0;exitDy=0;exitPerimeter=0;entryX=0.5;entryY=1;entryDx=0;entryDy=0;" parent="2b4e8129b02d487f-1" source="02pjmeGHb0Z9tMINrXIA-4" target="SVIuf77oB_ypSjHPxKgo-22" edge="1">
          <mxGeometry relative="1" as="geometry" />
        </mxCell>
        <mxCell id="BHv8QZY68cK9YwL15rHx-1" value="YES" style="edgeLabel;html=1;align=center;verticalAlign=middle;resizable=0;points=[];" parent="02pjmeGHb0Z9tMINrXIA-9" vertex="1" connectable="0">
          <mxGeometry x="-0.3763" relative="1" as="geometry">
            <mxPoint as="offset" />
          </mxGeometry>
        </mxCell>
        <mxCell id="JYyZlGjmGHNZjIjUmaZD-20" style="edgeStyle=orthogonalEdgeStyle;rounded=0;orthogonalLoop=1;jettySize=auto;html=1;entryX=0.5;entryY=0;entryDx=0;entryDy=0;" parent="1" edge="1">
          <mxGeometry relative="1" as="geometry">
            <mxPoint x="1979" y="430" as="targetPoint" />
          </mxGeometry>
        </mxCell>
        <mxCell id="JYyZlGjmGHNZjIjUmaZD-29" value="YES" style="edgeLabel;html=1;align=center;verticalAlign=middle;resizable=0;points=[];" parent="JYyZlGjmGHNZjIjUmaZD-20" vertex="1" connectable="0">
          <mxGeometry x="-0.4503" y="-1" relative="1" as="geometry">
            <mxPoint as="offset" />
          </mxGeometry>
        </mxCell>
      </root>
    </mxGraphModel>
  </diagram>
  <diagram name="ITR Process" id="GFlYzAd7ITzzBob0TtR2">
    <mxGraphModel dx="1035" dy="511" grid="1" gridSize="10" guides="1" tooltips="1" connect="1" arrows="1" fold="1" page="1" pageScale="1" pageWidth="1100" pageHeight="850" background="none" math="0" shadow="0">
      <root>
        <mxCell id="gwo3dm8ZFLVo4d31nm-l-0" />
        <mxCell id="gwo3dm8ZFLVo4d31nm-l-1" parent="gwo3dm8ZFLVo4d31nm-l-0" />
        <mxCell id="gwo3dm8ZFLVo4d31nm-l-2" value="INVENTORY TRANSFER REQUEST PROCESS" style="swimlane;html=1;childLayout=stackLayout;horizontal=1;startSize=20;horizontalStack=0;rounded=0;shadow=0;labelBackgroundColor=none;strokeWidth=1;fontFamily=Verdana;fontSize=8;align=center;fillColor=#DDEAFF;" parent="gwo3dm8ZFLVo4d31nm-l-1" vertex="1">
          <mxGeometry x="30" y="30" width="1310" height="470" as="geometry" />
        </mxCell>
        <mxCell id="gwo3dm8ZFLVo4d31nm-l-3" value="REQUESTOR" style="swimlane;html=1;startSize=20;horizontal=0;fillColor=#A9C4EB;strokeColor=#000000;" parent="gwo3dm8ZFLVo4d31nm-l-2" vertex="1">
          <mxGeometry y="20" width="1310" height="150" as="geometry" />
        </mxCell>
        <mxCell id="-Dfz00HVPd_Sje24WFme-4" style="edgeStyle=orthogonalEdgeStyle;rounded=0;orthogonalLoop=1;jettySize=auto;html=1;entryX=0;entryY=0.5;entryDx=0;entryDy=0;" parent="gwo3dm8ZFLVo4d31nm-l-3" source="gwo3dm8ZFLVo4d31nm-l-7" target="-Dfz00HVPd_Sje24WFme-1" edge="1">
          <mxGeometry relative="1" as="geometry">
            <mxPoint x="360" y="70" as="targetPoint" />
          </mxGeometry>
        </mxCell>
        <mxCell id="gwo3dm8ZFLVo4d31nm-l-7" value="&lt;span style=&quot;font-size: 10px;&quot;&gt;Received ITR Template&lt;/span&gt;" style="verticalLabelPosition=middle;verticalAlign=middle;shape=process;rounded=1;size=0.14;arcSize=6;fillColor=#D4E1F5;whiteSpace=wrap;html=1;labelPosition=center;align=center;" parent="gwo3dm8ZFLVo4d31nm-l-3" vertex="1">
          <mxGeometry x="184" y="52" width="125" height="75" as="geometry" />
        </mxCell>
        <mxCell id="gwo3dm8ZFLVo4d31nm-l-8" style="edgeStyle=orthogonalEdgeStyle;rounded=0;orthogonalLoop=1;jettySize=auto;html=1;entryX=0;entryY=0.5;entryDx=0;entryDy=0;exitX=1;exitY=0.5;exitDx=0;exitDy=0;exitPerimeter=0;" parent="gwo3dm8ZFLVo4d31nm-l-3" source="Ml-QPSZs7idSTjEhGVfB-0" edge="1">
          <mxGeometry relative="1" as="geometry">
            <mxPoint x="150" y="110" as="sourcePoint" />
            <mxPoint x="186" y="89.5" as="targetPoint" />
          </mxGeometry>
        </mxCell>
        <mxCell id="gwo3dm8ZFLVo4d31nm-l-9" style="edgeStyle=orthogonalEdgeStyle;rounded=0;orthogonalLoop=1;jettySize=auto;html=1;entryX=-0.01;entryY=0.559;entryDx=0;entryDy=0;entryPerimeter=0;" parent="gwo3dm8ZFLVo4d31nm-l-3" edge="1">
          <mxGeometry relative="1" as="geometry">
            <mxPoint x="1071" y="93.83333333333337" as="sourcePoint" />
          </mxGeometry>
        </mxCell>
        <mxCell id="gwo3dm8ZFLVo4d31nm-l-10" style="edgeStyle=orthogonalEdgeStyle;rounded=0;orthogonalLoop=1;jettySize=auto;html=1;entryX=0;entryY=0.5;entryDx=0;entryDy=0;" parent="gwo3dm8ZFLVo4d31nm-l-3" edge="1">
          <mxGeometry relative="1" as="geometry">
            <mxPoint x="1470.1999999999998" y="90" as="sourcePoint" />
          </mxGeometry>
        </mxCell>
        <mxCell id="gwo3dm8ZFLVo4d31nm-l-11" value="" style="group;whiteSpace=wrap;html=1;" parent="gwo3dm8ZFLVo4d31nm-l-3" vertex="1" connectable="0">
          <mxGeometry x="729" y="30" width="120" height="90" as="geometry" />
        </mxCell>
        <mxCell id="gwo3dm8ZFLVo4d31nm-l-12" value="&lt;span style=&quot;font-size: 10px;&quot;&gt;Receive &amp;amp; Check&lt;/span&gt;&lt;div&gt;&lt;span style=&quot;font-size: 10px;&quot;&gt;Item&lt;/span&gt;&lt;/div&gt;" style="verticalLabelPosition=middle;verticalAlign=middle;html=1;shape=trapezoid;perimeter=trapezoidPerimeter;whiteSpace=wrap;size=0.23;arcSize=10;flipV=1;labelPosition=center;align=center;" parent="gwo3dm8ZFLVo4d31nm-l-11" vertex="1">
          <mxGeometry y="30" width="120" height="60" as="geometry" />
        </mxCell>
        <mxCell id="gwo3dm8ZFLVo4d31nm-l-13" value="02" style="rounded=0;whiteSpace=wrap;html=1;" parent="gwo3dm8ZFLVo4d31nm-l-11" vertex="1">
          <mxGeometry y="10" width="120" height="20" as="geometry" />
        </mxCell>
        <mxCell id="gwo3dm8ZFLVo4d31nm-l-15" style="edgeStyle=orthogonalEdgeStyle;rounded=0;orthogonalLoop=1;jettySize=auto;html=1;entryX=0.006;entryY=0.45;entryDx=0;entryDy=0;entryPerimeter=0;" parent="gwo3dm8ZFLVo4d31nm-l-3" edge="1">
          <mxGeometry relative="1" as="geometry">
            <mxPoint x="865" y="90" as="sourcePoint" />
          </mxGeometry>
        </mxCell>
        <mxCell id="gwo3dm8ZFLVo4d31nm-l-16" style="edgeStyle=orthogonalEdgeStyle;rounded=0;orthogonalLoop=1;jettySize=auto;html=1;" parent="gwo3dm8ZFLVo4d31nm-l-3" edge="1">
          <mxGeometry relative="1" as="geometry">
            <mxPoint x="802.0000000000005" y="190" as="sourcePoint" />
          </mxGeometry>
        </mxCell>
        <mxCell id="Ml-QPSZs7idSTjEhGVfB-0" value="ITR Process" style="strokeWidth=2;html=1;shape=mxgraph.flowchart.sequential_data;whiteSpace=wrap;fillColor=#D4E1F5;" parent="gwo3dm8ZFLVo4d31nm-l-3" vertex="1">
          <mxGeometry x="50" y="51" width="78" height="78" as="geometry" />
        </mxCell>
        <mxCell id="bRn9kcbw77MmrY9Z-wZX-0" value="" style="group;fillColor=#D4E1F5;strokeColor=#6c8ebf;" parent="gwo3dm8ZFLVo4d31nm-l-3" vertex="1" connectable="0">
          <mxGeometry x="900" y="36.25" width="125" height="87.5" as="geometry" />
        </mxCell>
        <mxCell id="bRn9kcbw77MmrY9Z-wZX-1" value="Create IT-BW(Inventory Transfer Bonded Warehouse)" style="rounded=0;whiteSpace=wrap;html=1;fillColor=#D4E1F5;" parent="bRn9kcbw77MmrY9Z-wZX-0" vertex="1">
          <mxGeometry y="20" width="125" height="67.5" as="geometry" />
        </mxCell>
        <mxCell id="bRn9kcbw77MmrY9Z-wZX-2" value="03" style="rounded=0;whiteSpace=wrap;html=1;" parent="bRn9kcbw77MmrY9Z-wZX-0" vertex="1">
          <mxGeometry width="125" height="20" as="geometry" />
        </mxCell>
        <mxCell id="bRn9kcbw77MmrY9Z-wZX-3" value="" style="shape=image;imageAspect=0;aspect=fixed;verticalLabelPosition=bottom;verticalAlign=top;image=data:image/png,iVBORw0KGgoAAAANSUhEUgAAAQ4AAABICAIAAACIpYw3AAAABGdBTUEAALGPC/xhBQAAAAlwSFlzAAAScwAAEnMBjCK5BwAAABh0RVh0U29mdHdhcmUAcGFpbnQubmV0IDQuMC41ZYUyZQAAHZpJREFUeF7tnXlwHNldx1e2N7ubZHezkJtUlqoQyElVkqIChFAhSUEFAhR/sAHyB/+EUEk4iyqqQiUVKAhQVEgCodZJ1l6vb41GhyXLlq3Th3xJ9kq2ZPnSZVuybB2e++4e8+n+tdqtnuv1aGa0x3yra2rm9Tt+773f9/1+v9c93Y88qKOOOhRQp0oddSihTpU66lBCnSp11KGEOlXqqEMJdarUUYcS6lSpow4lVJ4qmqYlEolwOHz//v2lVSwvLwcCgWg0mkwmdV23stbxWgTzyywLMpmMlfrqR2Wokk6n7927d+HChUOHDu3bt+/FF1984YUXfrIWP/3pT7dt27Zjx479+/d3dnaeOXNmenoa/lRqNBcXF2/dunVbGchslVQA/LeKecfc3NzCwgLisXawWKRSqYovFgxjkb4zNZFIJGvCKlBN3L17FwVgogEqUZtGa4B1UYUpRwNOnDixc+fOrVu3/vjHP7ZooQAyU4Qvu3bt6unpmZycRI1kWMsYXPReZFDE888/Pz4+bhVWQCwWg+dW4bJAi3yyXmzfvp3VhMViaGhodnZWlJgmylYpCp4+fVpaKQTabWlpmZmZIXPZDSnizp07tiYMDw9bqa9+lEkVVlmWsY6ODobDE0MKgenEELW3t4+NjYVCIU/rLnOPgfIqRnNzs7rSQBVWSqtkhSCLBb1GEmjDolOegaUXmGir0sKgOTA4OMjcWSWrA6hCv6S51y9VjBUpm8WRqCBJXKBO1m8cOajIpNKc1XZhwCsWaau8FxBBWVWUQjWo4gS9loX/xo0bir22QWabKlTid6CpqWnv3r2Mp3OmaMIqWR0QqU6tYmVlxVNfXsnwTJWrV6/iQlSDJE5QP2Cmg8Gg1XZhYIXQBqukF5w6dcqqohSqTRUb0muiC6thBTipsnv3bhYOF9BdjIlkAAcPHnzNqG8toUoVBhf3AJ+YubSGvPrw+Xwlg28EGx0dtQp4BCuuYnBfM6oI8MrolKJ5cVElbxHmDiMjeRobG8XTCwQCLHzg2rVrqVRKctpgkcp7lhHD4J89e7a3t7e/v5/AfW5uLplMWqfNDJS6cuUKnzQhifPz82ZlVzE1SEh+qu3r68N94JPM8XhccrogzaF4XV1dhw8fPnnyJDU4mxNQJ4vC0tLSyMgIUiEbEuKW2wGwDanw3LlzLvnzjpsTSlShFqaN8F3GujbAl7h586YlQWEw6yzDVhmPoAlGzaqoKGpMFQETSe9KTiEZSlKFRFRN8jBcEq5MTEwYIf/WrdjkcDgsOW2g1nIW3mK3JRHVx0s0Tb6xYtpf9uzZg84JoyKRCIlSliakYHd3t6Ts27ePSpBBCtqVsGzl2tKFhQXJCZyZqcSlGzQN5ZhQyWDnZNYGBgboHSMAXPJLNj4ZN+hKBqu6fFClCmS1a68NWG9UllWiYQbIKuMdjG/JJsCGUAXAFhbL4hJytiRVWDXRRclDnZKIckgKXculCqu+nMXflrPOVUmUgU+0X1LgmzCKhVxSOEsTZmUPenp6JBEJMWtyFkiiAAI4zcWdO3fsMZfMAklh0mdmZiQnXT5+/Lik23lswYCEZ8jf3NwsKZKHTzsbgskKUghKVIHc61HHMsC4wwGr+aJYp0+4a9cuXHmrrsLYKKqA8fFxdarQHRwMJ+jd3bt3iU8kA72wNzO8UgXVlKFmdrA5WI/79+9jN1pbW0lEBpGzOFUEsAUX6OWXX8anslWL/NJZwIC/9NJLko545FwxgV+6Y8cOSUe5yUZmWkRIUqgKfYCxAO/ryJEjiIoZEQ7Mzs6K/GRGMFv+trY2EvHrRNRCKE0VhrtsD6c80B8WCYbAkqAwWCd27txpFSsX6IRVXWFsIFXQmOJ7GwyUTRV0BbbYYHAQm/EUFcFNwm+xB9YrVYaGhqQeiMdPux7sHqEILpCklKQKriBKRSL5wdjYmKSTH1dCEolJJBHZcMxIkXoA1gYCyFkoxCmWcvnJWIkYkp9PPC57aRgeHi4kP3XyKT8LoQRVqM4e0JqBCWYttHtSCGQo43KKCxRvb2+nquLNbSBVAHpWRDxO2VQpDhQRW21X5ZUqRCMy2qSwBhdyj4tThciHtVwSBax3uF5y1ufzUSezb6+AdM3Ktwoy4DbLWb/fj4pjNuUnKwV8lpApVzZ45ZLfOqGGElSJx+O2j6sOBBKZGBcWAMAXuiHpQLIVwuXLl63mi4KxsP2K9UDC1ryzbmNjqcIAIqElSg6Q3EkVGXAnZOTlLN9lJQZeqWIv3oAKcaKoijXbFU0VpwqWLXf9xlOSs/v37+fn0tIScvKTqbl9+zYBjAvXr1+XHiE5vAKYULMCo1FohleCoXNtimCdJA8Q+SF/rvyFUIIqLNvO8EgFuJKQnkAKIRg1lAww1vzEzDF22Fa8Q9vjdAHPkh5azRcFbglDaRVbBxg1liKr0gLwShXm/pgDvb29nZ2dzA1qJ3PsFXj2lig5YJptqqAxMuBOMFCEGeKRC8Qv90oVVOrUqVOSKJC+EKtMTk7aBChOFQYhVy/ts0IVggr5CWgd8VwgUc7CKPFOIY9zbPkCWOVHRkagltmIe02RPHyRK7+5BHahBFUGBwelOhWQE2cG0UtyFLGwV/AQt5Vlz26CnrOKWJlKgSVBSq0fOADFzTEKxwxZuUuB7uASWCVXwZiwBBBKYjNRF/VRFVCk0Fw6NaDQDhhAY3BvJBvKQTabKjYZnCBwzz2LDMwaxUl3dYH1USQsThUhgwu5VLErZ6V+vjA4K6EI3cEWSRzvXNypp7m5memTYbHlR9NcNgBSGaIURgmqyOaGIlybfSWB9ADOoPQsh/Tq8OHD0qWSIC60J74iwOJZVefD+qligw5CS+fypgKmtpAPRoUqVAH2NXvCX2RwUiW38omJCfusTRUqF7Agolv23qtA9mTXTxU8JXHA+Lx06dLNohAfxBLLVCdITlQGZ6RO4Nwlkmz0d3R01L4sC5DWvmCaFyWoYm/YqQDrbAvkFYRizA0Bn2IN+M0V8b5s4CYVabqCVBGgqS5npiTsywguILYKVUhnJZJsePMIgNMiP9HI3EuxDIictalCDa7K+clE2NEshoXE9VMFdbf987Nnz0oeF1zCuH4CZLZDWaqVuEVg5TCB/Pamgn3BNC9KUEWqUIS6TciFp4JkJuBhJqyGKwGUjOjQaiAHFacKXcACE+NaZRRADG0VXguqKkkVjPD4+Lgs1UDuqp6bm7NTOjo67A1cPp0bsmJzSGd8sEv4kJLNhm2sCMk4tX6qUGd/f7+kMOyyWWyDDDSBoeBTUsRK2xf7JRGwuEglkIHeIT9qY9NeMgP70lztqAJUrlGsH5gge8ejgii0bIOKU0VAsG6VUQDKYRVbC2bdpgr6jdq5gAfv3MZEPOIlStEp22sgEW8EXWEQ0CdnAGlTBQFIZBzQLQIDlI+lmp7ahD9//jzyVIQqtGhzlRbHxsagKC3yiZDiruOBi2BTU1Nkg/ZHjx6F/1CCmAQXUe5/B5gXUmz5sefIjxbBMVt+ThW/y6kEVexVRxHkJ/CgS3TAqqLSoGamk45ZTRYFTpo6qVCpQmJXiSrMjWJHQHd3t1VsLZDZpooKqAcVoRRAaZwCEOkCSbH9eKEKmscXOcUn2fjJmNgpfJfNqPVTRQABmD67flSLFvmkaUnBjWSc4YAzouYspWSypCxFqIouiLQCl/yAphkWq+18KEEVDLpUpA7axr7Pzs4Wb7hsMMHql1OQhKXO+lEKjB3TbDWzFlWiyuLioky8CvBvrWJrwYBAFWP+iwKNwQ9hebZ5AljUWImpnAzSCl9QNSIEFm+znPH3IVm8iSTJ7DQ4An6iJyzn5EEeFn6znKGONlXgpyQig6Q4Uejs/Py87BYCq7FVUaHH8vKy2QnDM8TQYSFzcyKtfR2JqJ2GRH5XNuQXnhdBCaqglM5KPYFl6caNG3LptIJg2ph1q42iQPKhoSFMreIGAPkvXrxoNbMWVaIK7nVFqHLz5k2UuxDQFRzjlZWV3AtWlGVVxkrDAeYLECQgFYl8SnHGUKI4ycz4wzfyt7S0sBJ1dXURBUkGATMuBYEdP1y/fl1SRkdHqUcSbTjP0oSVagIyYxOIgpqamlj4aXFgYOD27dtCeCuTKRsyoG/ID4vIhvc1PDwMAVzZcuXnJ2VzpXKhBFXs22bKA3qAlSTsY8hy56k8qFsJIC61vcVREsyHa6oEVaIKU6s+vEyqVWxDUVKlXqsoQZU7jkcKlA2pAX09ceKE629AXuFJ71mERO89bcvaC6ETVaKK7aOrwL55vo4NQQmqoJr2NsL6IZwhzj5+/LhYeasZZeC8qntfGHSKsAo6b14qDkrBZ2nLiYpTBalw/e1NHhUUubelCLIPshp+E76TcWQ0PalpSV3XdE4YKUaylbWOoihBFcCsK2qnCqQqlAnfzOfzEfapBzNMLX6q1FMSNGTf8gDh1ffB9u7dmytSxamCaT1w4IBVQAHUKdfCFUGvcZSyekoLjiemtkbP/En4yMfCHe8OtT4Vans61PlspOfXY8NfTd7cp8VuwSYpZH7WkR+lqcKQy4a0NWkVBYRBiS9cuIAuGnNbFPF43L43uyQaGxudW3B0wTpRCnAsd3+9UlShj9jSxcXFtrY29SElJ1IRl1u1lEY2E7+TuP7D8NGPBf2PBps2hZoeyXsEfA3B5jdGB347ccuvpYOQy6qgjhyUpgpglW0x/5FsTV0VAGEuX75cfH+ZZdXKrYDTp09bxUzcvn3bOqEAQggXb71ShRiPvtjArMFzdH1iYuLgwYOKO3JOYOuox5KmIHCnNF2LJ679INT+rqDFhwbzeEiPnKOBnMGmzcGjH03d6cxmM6azVueMG0pUYeDC4bCnuzDKABrW3t5e6MoGUH/YF2swyuqcbxwe9fvZyOnae/BEFYD12+0APyUsKW+5odTg4KAlSmFgEzKJhcixzwf9m3P4UOIINjUE/JswQbELf0MwUw9gcqFEFQFhKNFFVW0LQLGIwtFyp6KDoJd/p7AGu3Sd2uRamwro49WrV50CeKVKZUHHS3pf2JPU8nCw8+dNY1LcjJQ4Iie/mEkuE/q7puB1Dg9UYeASiYT9X83qYfv27UQLrnkaGhqyTiugv78/d5rtG2lVQCzxyqFKd3d3Ua3lVDZ9/0IQpwvLkKP6cqylEE5XQceM2Cbc+6uwpR66OOGBKoAJIyqdmppi7a+qeUEvZf9KgK/vvOGvOBBsenraKulAJBKBhFamUsCFc/57YQOpQrvF/0fBnGjJpfDhXwz6CxqTAKxof2ek95ORY58LD/xWqOuDoebHjcSCbGmInHkuq3t4WcBrHt6oYgPzQty8Y8eO6hGmtbUVhkBOMDc3Z6UqAKmc91nYgOTOP80WB/1yXsfYQKrI7bpFoOvp6OnnVg3FGnXHPgRb3hQ59cfpxWNZ7eGYYC60+O349R+FD38g1FQgsPFvSU6/pDuCFnOdTGTXHtBUf2DkMScKry2uxW5mls+lF09k7l/QE3ezRuRj2D2ppASyeJLUktJTK1poPLM0mFminvNIq2tRzhiH2VztUSZVAP1nnUafqmdhLl26ZE5Atre310pSwJEjRywRc3Dx4kUrkwL27dtn34yzIVRhVLu6ukreEJS65c8XxxsWI3zkI6nlU1pWY7as3KtgVKGBlg4kxr4V8j+eU9w4wh3vySQe7nqj96G+Xwv3fDzc84mHR/+ntMQCZ7VMLD71QrD748GWJ8UPDPq3hNqeCfd/OjG7B2pKJcWhJ5eSU9sjA58Ltb8j6H+DsdmASfRvDrY8Fer6QOzCN1Ir5/RsZe6Q8oryqWIjlUoRBsiN0JXlDE4XioKaqm9eIcDk5KQlWQ7u37+PZ2VlLQVy2nfL1p4qdOTAgQPYVZE8L5BNS4fDRz4cyHG9DPIc/WUtPq+wmGeTM7sDzY+5ajAOf0Ps0jetXOhxfC7U8oQ7T+uTeuxWOjYX6v2NQgYKXQ8NfFZLFtyZwBhpeiox81Ko4+dCvvw+oRxB/+OR01/SMFYmrPI1QQWoIhLziUtN8N3Y2IiSVYQzVDI7O+spHMf7KnKPGQ6Ep8f/2f8irj1VsI3if4rkecG59J3DLN65UUqg/R1adBpXRkWfYFx87Nvmlcq1LhzVHnhbNhOV+D6bnypPpZcGw53vNyxJ/mCpgXTORvt/M5uJ0Jg0ugoEhCjx2IWvGe5igdhp9TBdSvIcfDYTGHU6hzVABajigqZp8sDM9vZ2wuh1cmZgYMDTu1PwWIorx8urz01TAb6lhD21pAqDRnyicMHRUPHomS+79Ns8NiWnX1QhiQ09Ewl3fyxPVb5HkresxxHlp0rzE7hG2JOgf216nqMhMfHvhjfoAIGHlglHB/8o5PN4Laj97bDFqqUmqDxVbLCEE8yMjY01r32uhydgJTxd2yaqwbiJnjHBApGHL9FolPjHE3unzEdm1YAqSIU1xpgU3+9yIpsJhzrfm7MSN4S6PqivmgJFkDk115Z3UY+e/TNsk5EnL1WMlV52ohWOjvdoqYe9M8OldHTkG2YlD5s2rZCRYh7m/kROMEZipPsTxs04Hnq5LlSRKgJR1vn5+WrfGiOQJghyMC9nzpwZGRmBG7iFfX19fr8f1nmVQZ6tUVWqIBKWpLu7W56SCqyxKwUtdDnYvMWtQwQYY/9k5VAGVNEzYeN+yrW1cYSPfEQ3d40LUOXhEfRtCjZuDjUWvOUs5N+Umm+VFgFESd7rNezSWorShQAxycDn4uP/nLjyn5GzXw4e+FlXHiNbU0P86n+rD9c6UXWq2GClx/lRj6rXD1TQhpXkHSgxtrEMqlgNr8KVyHdq3r9/f09Pz40bN+IFXsRTDNlsav6A4buv9XyCzY9m7hpPTvEGc4WPnvlSHj/qwFv1pPFWgkJUMSxA69Ox819PLRxJr5xLzreHTz8XbH4s4HdzBmmxIdIgyGqJyMBn3Hko1fWh1MrDnXrIkI7PRwb/wL1tgKidz2bTBR9RW1nUjirmcpk9e/asKM2rBag1DIcq9pOpVIAt6s/B4OAg3b948SLcwIBQp2wEMyz2pyLIim4nb/wfK+sa7eFoeVMmUsbbHrEr2cTV/8qtMND6pBY1vNCCVqXtLcl7feYlD/OiiLkLHbv+Q2OzeG1OSBU59nm7p+nlU3nytL89Hb5KPZIHGHqTzWbSgXDvJ9faFr5vSt7c48nVLBu1o4qAiL+M+2o3Fo2NjQQ56lSBXYr/glwP0MfExHcderN6tD6txVUfZutCanpHbtQRbHmjFjYekJWXKpiO2OjfEZe69FXX4uEjH3Jl5oj0fMLgkpknPvK3kMd5ltbj49/Jq/rG0nDvWC61Iie/aHKv6mzxQBUEWlhYkCcAyE9J94Tl5eVXHVXA9PS0ugNWG6ow/okr/xHyrdEb42h7SouVfjFgXiRntuUJCVrerEWucjYvVYItj6WXT+cqtyHepW+5MnNEuj+uGyeBFu76sOFuOc6Gm5/IxG6ateUcRolk+ND7XXYv3P5OTavFDTgeqJJefSdRZ2cnqoDk1gkvwP0QT/1VBAQ+evToK48qenLqhVyqBJsfzwRKPKm6EOIT/+Ja5o0K257OxI3/uuWnSuub9disFHcC1U7e3JsrnlDFcNESd4Mtj7v1vuNdydkdyZmXUnmP2Z0YpZxoanPG9A+rDQ9UYWW1dMFER0fH3NwclpdTKrQhTzAY9OTxv3KwzXxFjCLJa0MVkFk4YhqBNdoW9G9Ozu62cqjDiDG08ODvmvdQPqzNOA6+RzdD5/yxSuuTej5/D6qkbjfmpYppILJaaJxIw3XWOHwNxQ5XZvrreyS1nOdxCBWHElWMjmma8xl+gq1bt+7fv5+oVx5rKbTJBcWxSJOTk+r3p7yqUTOqEG2zMLtUJ9C0KXL6OfPv8h7MPuqrJZdCbc/kWpVw/6cxAkYeL1Qhe1Gq6Jn7F0K+wtvK6oevIXWn3WqzmlClivPtMC7IWrtr1y7szPHjx8+fPz8+Pn7VfN85X/jZ29u7d+9exSX5NYCaUSWrxUJdH3AF4sb28YFn0pEp5yZSSRj+0o3/ddZjH/FL30YBjDwVpUo6MFIRqtD91Fyb1WY1oUQVTIriFXe0JBfWudcN6HJtqILKxV/+K5fqyBE98yW5xK4CXdfS8Ts4Wm5fznCQNicDI8b+VkWpgplKYxL9m3M23BrMW9o8HIGmLam7xssqqg0lqhClvA41vmzUjCrZB3py+XTIuCnY7TUF/FsSUz9RNCyaFoue/tOQobhr6gn4GyI9nySGgU1kq6RVMW4OiIYOvNW1AxZq/Zl0+Joen9cTygeZtfIfwqiOElSRMKPGL+P2Cr/fv2fPHrmdWYXSkmfHjh2NjY2SUllQf62oQgyZCB//fDDf3e/B5icS0y9ouvEEFqtADjilZaLRC1/PW0PI/2j6ziEra6WpQo7IiS+4yImRSczukrOFgMwme2uN0lQh6qjl3ShesW3btiXzwcQrKyuERn19fS0tLbt3796+ffsLDvBz586dPp+vq6uL8Gl+fj6RSASDQU/Pd1REzahizM+DbHr5XDBXg42jIeR/LDr8F1r8NqrHVBow/mVo6KqZoqdXzkf6PhUylnZ32IASR078nq4/fHpgxamSnNmZaw/Dh39JSy6ZAq4BReSCTHKhO7VovLAOWOdqghJUiUQi6k+p2xDsN99dZom7qhC6rkOeWCyG/CAajSaTSSIu46KyY3xJgVdWRZVDDaligO7Gxr6Zq5Srx6ZA69OR4a8k7/ZqsZt6OqilVjKRyeRtf+Tk7wf9jwfyWiSYc+BtmdCVrGP9rjhVtORiqONdrgy4ZJETv6MlHz5ZQWDMaiYev/q9YPObQi1PI7/sy9UMJahy9uxZFZdmA3Hy5ElL1rKAhbEqqhxqTRW0SIujXi5nRg5cGiPdZ1x/CPnfEG59Jtz6FuPvJYYSkz9fEf+mYPNjiemdrkW74lQx/ok/8W/mXZVOMYwb78Md741PfDe9PKhHp7XodGZ5MH7te6GuDxsdkZvz/Y8lrn3fuOW5VralBFUOHTpUM6rQUEdHhydnjyILC8Yfu8sGzhvumVVdhVBjqgi0xN1I76ccClfmgRYGmh+PX/uRZvyFfY0WVpwqUFxPBSM9chOkm7RYtoB/CzYkYBxbDMI79gDMB/y9IT76j1m9Rn+1L0EVPJZ79+51dnYy/cDShSrgxRdfvHbtmtfXuRDNF7ruqQj8tIoH93Sh9lQBenIpcuyzxnUV17aS8mHakzcnZvfi61iVOlBxqpjIpiM3Qh3vzn08QPEjYD4OM3rhG1m9RiF+6bBenPvFxcXe3t6K35aCVslf/0KhEJGD+rtTAGVVHk9aHPTO04sUVbBRVGGidC1B3BJsfcq8XqGufPKvw02hIx9JLQ0ad/7m82qqQhXjh54OXw93fdSwG2oyG16l/9HI+a/S33ySVgUlqOIEw0d8fOXKlYMHD243/zQPLO3wDspSSXd3N1ollsHTO0QBHIPAIlvZoFOYTavGCoFebAhVBFpWS98/Hz75h0b4m6OpeQ9DRzvfF7/2fS0dLBIrQ5U8W23rtSoGjBe/JBZjw38ZaiktsxGoHHw2ObPTuTtXA3igig00OxaLTU5O9vX1yTO/t66+lrY4yENOVNzv94+MjITDYXv14gu1YbXU0dzcjCGS4usBlTQ1NVmVVgh5X/1VI5hDmkX5QhOxkb8PH3qf4ZL58FhMJTP9HIMbvoagryHU8lS4/zPJ2Z162nhpaK4SOwElgq1PGm+hcB5tz+ixPFSBcolbvmDT2sz+R8M9v2KycU0rZqOogK6FxmJDfx5qe6vxNouHRsb4YqT4NkUO/ULi8r9mkktmqZqiHKoAp4pjajAIo6OjAwMDGByfz7dr166XHIBOqDUGZGhoaGZmBprZxZ1AZT3BtfO7Hlg1Vg7rjKAqAsZGf0DgnNHDV1O3fPHL34m9/LXY8FeMY/Qfkjf+J73Yp6fvo7jGOCpsvKLJxhUPjtTDI5NczB/YUK0Wd2U2D6PFQmqOHMY7xtLh9OKxxPUfxEf++qHAU9sygRFNN+7KVZG24iiTKnXU8XpDnSp11KGEOlXqqEMJdarUUYcS6lSpow4l1KlSRx0KePDg/wHBQXmhr71A+AAAAABJRU5ErkJggg==;" parent="bRn9kcbw77MmrY9Z-wZX-0" vertex="1">
          <mxGeometry x="80" y="4.66000000000011" width="40" height="10.67" as="geometry" />
        </mxCell>
        <mxCell id="bRn9kcbw77MmrY9Z-wZX-4" style="edgeStyle=orthogonalEdgeStyle;rounded=0;orthogonalLoop=1;jettySize=auto;html=1;entryX=0;entryY=0.5;entryDx=0;entryDy=0;" parent="gwo3dm8ZFLVo4d31nm-l-3" source="gwo3dm8ZFLVo4d31nm-l-12" target="bRn9kcbw77MmrY9Z-wZX-1" edge="1">
          <mxGeometry relative="1" as="geometry" />
        </mxCell>
        <mxCell id="LQZcbjCNjWUu7551e_i1-1" value="End" style="strokeWidth=1;html=1;shape=mxgraph.flowchart.start_1;whiteSpace=wrap;fillColor=#D4E1F5;" parent="gwo3dm8ZFLVo4d31nm-l-3" vertex="1">
          <mxGeometry x="1223" y="69.5" width="66.67" height="40" as="geometry" />
        </mxCell>
        <mxCell id="1RbkQ8iAVVQdvnF-KrFM-0" value="" style="group;whiteSpace=wrap;html=1;" vertex="1" connectable="0" parent="gwo3dm8ZFLVo4d31nm-l-3">
          <mxGeometry x="1071" y="30" width="120" height="90" as="geometry" />
        </mxCell>
        <mxCell id="1RbkQ8iAVVQdvnF-KrFM-1" value="&lt;span style=&quot;font-size: 10px;&quot;&gt;Arrange &amp;amp; Display&lt;/span&gt;&lt;div&gt;&lt;span style=&quot;font-size: 10px;&quot;&gt;Stock in WHSE&lt;/span&gt;&lt;/div&gt;" style="verticalLabelPosition=middle;verticalAlign=middle;html=1;shape=trapezoid;perimeter=trapezoidPerimeter;whiteSpace=wrap;size=0.23;arcSize=10;flipV=1;labelPosition=center;align=center;" vertex="1" parent="1RbkQ8iAVVQdvnF-KrFM-0">
          <mxGeometry y="30" width="120" height="60" as="geometry" />
        </mxCell>
        <mxCell id="1RbkQ8iAVVQdvnF-KrFM-2" value="04" style="rounded=0;whiteSpace=wrap;html=1;" vertex="1" parent="1RbkQ8iAVVQdvnF-KrFM-0">
          <mxGeometry y="10" width="120" height="20" as="geometry" />
        </mxCell>
        <mxCell id="1RbkQ8iAVVQdvnF-KrFM-3" style="edgeStyle=orthogonalEdgeStyle;rounded=0;orthogonalLoop=1;jettySize=auto;html=1;entryX=0;entryY=0.5;entryDx=0;entryDy=0;" edge="1" parent="gwo3dm8ZFLVo4d31nm-l-3" source="bRn9kcbw77MmrY9Z-wZX-1" target="1RbkQ8iAVVQdvnF-KrFM-1">
          <mxGeometry relative="1" as="geometry" />
        </mxCell>
        <mxCell id="1RbkQ8iAVVQdvnF-KrFM-4" style="edgeStyle=orthogonalEdgeStyle;rounded=0;orthogonalLoop=1;jettySize=auto;html=1;entryX=0;entryY=0.5;entryDx=0;entryDy=0;entryPerimeter=0;" edge="1" parent="gwo3dm8ZFLVo4d31nm-l-3" source="1RbkQ8iAVVQdvnF-KrFM-1" target="LQZcbjCNjWUu7551e_i1-1">
          <mxGeometry relative="1" as="geometry" />
        </mxCell>
        <mxCell id="QCFTo49A7_HSJXKzQKgp-3" value="" style="group" vertex="1" connectable="0" parent="gwo3dm8ZFLVo4d31nm-l-3">
          <mxGeometry x="371" y="30" width="175" height="100" as="geometry" />
        </mxCell>
        <mxCell id="-Dfz00HVPd_Sje24WFme-0" value="" style="group;fillColor=#D4E1F5;strokeColor=#6c8ebf;" parent="QCFTo49A7_HSJXKzQKgp-3" vertex="1" connectable="0">
          <mxGeometry y="6.25" width="125" height="87.5" as="geometry" />
        </mxCell>
        <mxCell id="-Dfz00HVPd_Sje24WFme-1" value="Create ITR" style="rounded=0;whiteSpace=wrap;html=1;fillColor=#D4E1F5;" parent="-Dfz00HVPd_Sje24WFme-0" vertex="1">
          <mxGeometry y="20" width="125" height="67.5" as="geometry" />
        </mxCell>
        <mxCell id="-Dfz00HVPd_Sje24WFme-2" value="01" style="rounded=0;whiteSpace=wrap;html=1;" parent="-Dfz00HVPd_Sje24WFme-0" vertex="1">
          <mxGeometry width="125" height="20" as="geometry" />
        </mxCell>
        <mxCell id="-Dfz00HVPd_Sje24WFme-3" value="" style="shape=image;imageAspect=0;aspect=fixed;verticalLabelPosition=bottom;verticalAlign=top;image=data:image/png,iVBORw0KGgoAAAANSUhEUgAAAQ4AAABICAIAAACIpYw3AAAABGdBTUEAALGPC/xhBQAAAAlwSFlzAAAScwAAEnMBjCK5BwAAABh0RVh0U29mdHdhcmUAcGFpbnQubmV0IDQuMC41ZYUyZQAAHZpJREFUeF7tnXlwHNldx1e2N7ubZHezkJtUlqoQyElVkqIChFAhSUEFAhR/sAHyB/+EUEk4iyqqQiUVKAhQVEgCodZJ1l6vb41GhyXLlq3Th3xJ9kq2ZPnSZVuybB2e++4e8+n+tdqtnuv1aGa0x3yra2rm9Tt+773f9/1+v9c93Y88qKOOOhRQp0oddSihTpU66lBCnSp11KGEOlXqqEMJdarUUYcS6lSpow4lVJ4qmqYlEolwOHz//v2lVSwvLwcCgWg0mkwmdV23stbxWgTzyywLMpmMlfrqR2Wokk6n7927d+HChUOHDu3bt+/FF1984YUXfrIWP/3pT7dt27Zjx479+/d3dnaeOXNmenoa/lRqNBcXF2/dunVbGchslVQA/LeKecfc3NzCwgLisXawWKRSqYovFgxjkb4zNZFIJGvCKlBN3L17FwVgogEqUZtGa4B1UYUpRwNOnDixc+fOrVu3/vjHP7ZooQAyU4Qvu3bt6unpmZycRI1kWMsYXPReZFDE888/Pz4+bhVWQCwWg+dW4bJAi3yyXmzfvp3VhMViaGhodnZWlJgmylYpCp4+fVpaKQTabWlpmZmZIXPZDSnizp07tiYMDw9bqa9+lEkVVlmWsY6ODobDE0MKgenEELW3t4+NjYVCIU/rLnOPgfIqRnNzs7rSQBVWSqtkhSCLBb1GEmjDolOegaUXmGir0sKgOTA4OMjcWSWrA6hCv6S51y9VjBUpm8WRqCBJXKBO1m8cOajIpNKc1XZhwCsWaau8FxBBWVWUQjWo4gS9loX/xo0bir22QWabKlTid6CpqWnv3r2Mp3OmaMIqWR0QqU6tYmVlxVNfXsnwTJWrV6/iQlSDJE5QP2Cmg8Gg1XZhYIXQBqukF5w6dcqqohSqTRUb0muiC6thBTipsnv3bhYOF9BdjIlkAAcPHnzNqG8toUoVBhf3AJ+YubSGvPrw+Xwlg28EGx0dtQp4BCuuYnBfM6oI8MrolKJ5cVElbxHmDiMjeRobG8XTCwQCLHzg2rVrqVRKctpgkcp7lhHD4J89e7a3t7e/v5/AfW5uLplMWqfNDJS6cuUKnzQhifPz82ZlVzE1SEh+qu3r68N94JPM8XhccrogzaF4XV1dhw8fPnnyJDU4mxNQJ4vC0tLSyMgIUiEbEuKW2wGwDanw3LlzLvnzjpsTSlShFqaN8F3GujbAl7h586YlQWEw6yzDVhmPoAlGzaqoKGpMFQETSe9KTiEZSlKFRFRN8jBcEq5MTEwYIf/WrdjkcDgsOW2g1nIW3mK3JRHVx0s0Tb6xYtpf9uzZg84JoyKRCIlSliakYHd3t6Ts27ePSpBBCtqVsGzl2tKFhQXJCZyZqcSlGzQN5ZhQyWDnZNYGBgboHSMAXPJLNj4ZN+hKBqu6fFClCmS1a68NWG9UllWiYQbIKuMdjG/JJsCGUAXAFhbL4hJytiRVWDXRRclDnZKIckgKXculCqu+nMXflrPOVUmUgU+0X1LgmzCKhVxSOEsTZmUPenp6JBEJMWtyFkiiAAI4zcWdO3fsMZfMAklh0mdmZiQnXT5+/Lik23lswYCEZ8jf3NwsKZKHTzsbgskKUghKVIHc61HHMsC4wwGr+aJYp0+4a9cuXHmrrsLYKKqA8fFxdarQHRwMJ+jd3bt3iU8kA72wNzO8UgXVlKFmdrA5WI/79+9jN1pbW0lEBpGzOFUEsAUX6OWXX8anslWL/NJZwIC/9NJLko545FwxgV+6Y8cOSUe5yUZmWkRIUqgKfYCxAO/ryJEjiIoZEQ7Mzs6K/GRGMFv+trY2EvHrRNRCKE0VhrtsD6c80B8WCYbAkqAwWCd27txpFSsX6IRVXWFsIFXQmOJ7GwyUTRV0BbbYYHAQm/EUFcFNwm+xB9YrVYaGhqQeiMdPux7sHqEILpCklKQKriBKRSL5wdjYmKSTH1dCEolJJBHZcMxIkXoA1gYCyFkoxCmWcvnJWIkYkp9PPC57aRgeHi4kP3XyKT8LoQRVqM4e0JqBCWYttHtSCGQo43KKCxRvb2+nquLNbSBVAHpWRDxO2VQpDhQRW21X5ZUqRCMy2qSwBhdyj4tThciHtVwSBax3uF5y1ufzUSezb6+AdM3Ktwoy4DbLWb/fj4pjNuUnKwV8lpApVzZ45ZLfOqGGElSJx+O2j6sOBBKZGBcWAMAXuiHpQLIVwuXLl63mi4KxsP2K9UDC1ryzbmNjqcIAIqElSg6Q3EkVGXAnZOTlLN9lJQZeqWIv3oAKcaKoijXbFU0VpwqWLXf9xlOSs/v37+fn0tIScvKTqbl9+zYBjAvXr1+XHiE5vAKYULMCo1FohleCoXNtimCdJA8Q+SF/rvyFUIIqLNvO8EgFuJKQnkAKIRg1lAww1vzEzDF22Fa8Q9vjdAHPkh5azRcFbglDaRVbBxg1liKr0gLwShXm/pgDvb29nZ2dzA1qJ3PsFXj2lig5YJptqqAxMuBOMFCEGeKRC8Qv90oVVOrUqVOSKJC+EKtMTk7aBChOFQYhVy/ts0IVggr5CWgd8VwgUc7CKPFOIY9zbPkCWOVHRkagltmIe02RPHyRK7+5BHahBFUGBwelOhWQE2cG0UtyFLGwV/AQt5Vlz26CnrOKWJlKgSVBSq0fOADFzTEKxwxZuUuB7uASWCVXwZiwBBBKYjNRF/VRFVCk0Fw6NaDQDhhAY3BvJBvKQTabKjYZnCBwzz2LDMwaxUl3dYH1USQsThUhgwu5VLErZ6V+vjA4K6EI3cEWSRzvXNypp7m5memTYbHlR9NcNgBSGaIURgmqyOaGIlybfSWB9ADOoPQsh/Tq8OHD0qWSIC60J74iwOJZVefD+qligw5CS+fypgKmtpAPRoUqVAH2NXvCX2RwUiW38omJCfusTRUqF7Agolv23qtA9mTXTxU8JXHA+Lx06dLNohAfxBLLVCdITlQGZ6RO4Nwlkmz0d3R01L4sC5DWvmCaFyWoYm/YqQDrbAvkFYRizA0Bn2IN+M0V8b5s4CYVabqCVBGgqS5npiTsywguILYKVUhnJZJsePMIgNMiP9HI3EuxDIictalCDa7K+clE2NEshoXE9VMFdbf987Nnz0oeF1zCuH4CZLZDWaqVuEVg5TCB/Pamgn3BNC9KUEWqUIS6TciFp4JkJuBhJqyGKwGUjOjQaiAHFacKXcACE+NaZRRADG0VXguqKkkVjPD4+Lgs1UDuqp6bm7NTOjo67A1cPp0bsmJzSGd8sEv4kJLNhm2sCMk4tX6qUGd/f7+kMOyyWWyDDDSBoeBTUsRK2xf7JRGwuEglkIHeIT9qY9NeMgP70lztqAJUrlGsH5gge8ejgii0bIOKU0VAsG6VUQDKYRVbC2bdpgr6jdq5gAfv3MZEPOIlStEp22sgEW8EXWEQ0CdnAGlTBQFIZBzQLQIDlI+lmp7ahD9//jzyVIQqtGhzlRbHxsagKC3yiZDiruOBi2BTU1Nkg/ZHjx6F/1CCmAQXUe5/B5gXUmz5sefIjxbBMVt+ThW/y6kEVexVRxHkJ/CgS3TAqqLSoGamk45ZTRYFTpo6qVCpQmJXiSrMjWJHQHd3t1VsLZDZpooKqAcVoRRAaZwCEOkCSbH9eKEKmscXOcUn2fjJmNgpfJfNqPVTRQABmD67flSLFvmkaUnBjWSc4YAzouYspWSypCxFqIouiLQCl/yAphkWq+18KEEVDLpUpA7axr7Pzs4Wb7hsMMHql1OQhKXO+lEKjB3TbDWzFlWiyuLioky8CvBvrWJrwYBAFWP+iwKNwQ9hebZ5AljUWImpnAzSCl9QNSIEFm+znPH3IVm8iSTJ7DQ4An6iJyzn5EEeFn6znKGONlXgpyQig6Q4Uejs/Py87BYCq7FVUaHH8vKy2QnDM8TQYSFzcyKtfR2JqJ2GRH5XNuQXnhdBCaqglM5KPYFl6caNG3LptIJg2ph1q42iQPKhoSFMreIGAPkvXrxoNbMWVaIK7nVFqHLz5k2UuxDQFRzjlZWV3AtWlGVVxkrDAeYLECQgFYl8SnHGUKI4ycz4wzfyt7S0sBJ1dXURBUkGATMuBYEdP1y/fl1SRkdHqUcSbTjP0oSVagIyYxOIgpqamlj4aXFgYOD27dtCeCuTKRsyoG/ID4vIhvc1PDwMAVzZcuXnJ2VzpXKhBFXs22bKA3qAlSTsY8hy56k8qFsJIC61vcVREsyHa6oEVaIKU6s+vEyqVWxDUVKlXqsoQZU7jkcKlA2pAX09ceKE629AXuFJ71mERO89bcvaC6ETVaKK7aOrwL55vo4NQQmqoJr2NsL6IZwhzj5+/LhYeasZZeC8qntfGHSKsAo6b14qDkrBZ2nLiYpTBalw/e1NHhUUubelCLIPshp+E76TcWQ0PalpSV3XdE4YKUaylbWOoihBFcCsK2qnCqQqlAnfzOfzEfapBzNMLX6q1FMSNGTf8gDh1ffB9u7dmytSxamCaT1w4IBVQAHUKdfCFUGvcZSyekoLjiemtkbP/En4yMfCHe8OtT4Vans61PlspOfXY8NfTd7cp8VuwSYpZH7WkR+lqcKQy4a0NWkVBYRBiS9cuIAuGnNbFPF43L43uyQaGxudW3B0wTpRCnAsd3+9UlShj9jSxcXFtrY29SElJ1IRl1u1lEY2E7+TuP7D8NGPBf2PBps2hZoeyXsEfA3B5jdGB347ccuvpYOQy6qgjhyUpgpglW0x/5FsTV0VAGEuX75cfH+ZZdXKrYDTp09bxUzcvn3bOqEAQggXb71ShRiPvtjArMFzdH1iYuLgwYOKO3JOYOuox5KmIHCnNF2LJ679INT+rqDFhwbzeEiPnKOBnMGmzcGjH03d6cxmM6azVueMG0pUYeDC4bCnuzDKABrW3t5e6MoGUH/YF2swyuqcbxwe9fvZyOnae/BEFYD12+0APyUsKW+5odTg4KAlSmFgEzKJhcixzwf9m3P4UOIINjUE/JswQbELf0MwUw9gcqFEFQFhKNFFVW0LQLGIwtFyp6KDoJd/p7AGu3Sd2uRamwro49WrV50CeKVKZUHHS3pf2JPU8nCw8+dNY1LcjJQ4Iie/mEkuE/q7puB1Dg9UYeASiYT9X83qYfv27UQLrnkaGhqyTiugv78/d5rtG2lVQCzxyqFKd3d3Ua3lVDZ9/0IQpwvLkKP6cqylEE5XQceM2Cbc+6uwpR66OOGBKoAJIyqdmppi7a+qeUEvZf9KgK/vvOGvOBBsenraKulAJBKBhFamUsCFc/57YQOpQrvF/0fBnGjJpfDhXwz6CxqTAKxof2ek95ORY58LD/xWqOuDoebHjcSCbGmInHkuq3t4WcBrHt6oYgPzQty8Y8eO6hGmtbUVhkBOMDc3Z6UqAKmc91nYgOTOP80WB/1yXsfYQKrI7bpFoOvp6OnnVg3FGnXHPgRb3hQ59cfpxWNZ7eGYYC60+O349R+FD38g1FQgsPFvSU6/pDuCFnOdTGTXHtBUf2DkMScKry2uxW5mls+lF09k7l/QE3ezRuRj2D2ppASyeJLUktJTK1poPLM0mFminvNIq2tRzhiH2VztUSZVAP1nnUafqmdhLl26ZE5Atre310pSwJEjRywRc3Dx4kUrkwL27dtn34yzIVRhVLu6ukreEJS65c8XxxsWI3zkI6nlU1pWY7as3KtgVKGBlg4kxr4V8j+eU9w4wh3vySQe7nqj96G+Xwv3fDzc84mHR/+ntMQCZ7VMLD71QrD748GWJ8UPDPq3hNqeCfd/OjG7B2pKJcWhJ5eSU9sjA58Ltb8j6H+DsdmASfRvDrY8Fer6QOzCN1Ir5/RsZe6Q8oryqWIjlUoRBsiN0JXlDE4XioKaqm9eIcDk5KQlWQ7u37+PZ2VlLQVy2nfL1p4qdOTAgQPYVZE8L5BNS4fDRz4cyHG9DPIc/WUtPq+wmGeTM7sDzY+5ajAOf0Ps0jetXOhxfC7U8oQ7T+uTeuxWOjYX6v2NQgYKXQ8NfFZLFtyZwBhpeiox81Ko4+dCvvw+oRxB/+OR01/SMFYmrPI1QQWoIhLziUtN8N3Y2IiSVYQzVDI7O+spHMf7KnKPGQ6Ep8f/2f8irj1VsI3if4rkecG59J3DLN65UUqg/R1adBpXRkWfYFx87Nvmlcq1LhzVHnhbNhOV+D6bnypPpZcGw53vNyxJ/mCpgXTORvt/M5uJ0Jg0ugoEhCjx2IWvGe5igdhp9TBdSvIcfDYTGHU6hzVABajigqZp8sDM9vZ2wuh1cmZgYMDTu1PwWIorx8urz01TAb6lhD21pAqDRnyicMHRUPHomS+79Ns8NiWnX1QhiQ09Ewl3fyxPVb5HkresxxHlp0rzE7hG2JOgf216nqMhMfHvhjfoAIGHlglHB/8o5PN4Laj97bDFqqUmqDxVbLCEE8yMjY01r32uhydgJTxd2yaqwbiJnjHBApGHL9FolPjHE3unzEdm1YAqSIU1xpgU3+9yIpsJhzrfm7MSN4S6PqivmgJFkDk115Z3UY+e/TNsk5EnL1WMlV52ohWOjvdoqYe9M8OldHTkG2YlD5s2rZCRYh7m/kROMEZipPsTxs04Hnq5LlSRKgJR1vn5+WrfGiOQJghyMC9nzpwZGRmBG7iFfX19fr8f1nmVQZ6tUVWqIBKWpLu7W56SCqyxKwUtdDnYvMWtQwQYY/9k5VAGVNEzYeN+yrW1cYSPfEQ3d40LUOXhEfRtCjZuDjUWvOUs5N+Umm+VFgFESd7rNezSWorShQAxycDn4uP/nLjyn5GzXw4e+FlXHiNbU0P86n+rD9c6UXWq2GClx/lRj6rXD1TQhpXkHSgxtrEMqlgNr8KVyHdq3r9/f09Pz40bN+IFXsRTDNlsav6A4buv9XyCzY9m7hpPTvEGc4WPnvlSHj/qwFv1pPFWgkJUMSxA69Ox819PLRxJr5xLzreHTz8XbH4s4HdzBmmxIdIgyGqJyMBn3Hko1fWh1MrDnXrIkI7PRwb/wL1tgKidz2bTBR9RW1nUjirmcpk9e/asKM2rBag1DIcq9pOpVIAt6s/B4OAg3b948SLcwIBQp2wEMyz2pyLIim4nb/wfK+sa7eFoeVMmUsbbHrEr2cTV/8qtMND6pBY1vNCCVqXtLcl7feYlD/OiiLkLHbv+Q2OzeG1OSBU59nm7p+nlU3nytL89Hb5KPZIHGHqTzWbSgXDvJ9faFr5vSt7c48nVLBu1o4qAiL+M+2o3Fo2NjQQ56lSBXYr/glwP0MfExHcderN6tD6txVUfZutCanpHbtQRbHmjFjYekJWXKpiO2OjfEZe69FXX4uEjH3Jl5oj0fMLgkpknPvK3kMd5ltbj49/Jq/rG0nDvWC61Iie/aHKv6mzxQBUEWlhYkCcAyE9J94Tl5eVXHVXA9PS0ugNWG6ow/okr/xHyrdEb42h7SouVfjFgXiRntuUJCVrerEWucjYvVYItj6WXT+cqtyHepW+5MnNEuj+uGyeBFu76sOFuOc6Gm5/IxG6ateUcRolk+ND7XXYv3P5OTavFDTgeqJJefSdRZ2cnqoDk1gkvwP0QT/1VBAQ+evToK48qenLqhVyqBJsfzwRKPKm6EOIT/+Ja5o0K257OxI3/uuWnSuub9disFHcC1U7e3JsrnlDFcNESd4Mtj7v1vuNdydkdyZmXUnmP2Z0YpZxoanPG9A+rDQ9UYWW1dMFER0fH3NwclpdTKrQhTzAY9OTxv3KwzXxFjCLJa0MVkFk4YhqBNdoW9G9Ozu62cqjDiDG08ODvmvdQPqzNOA6+RzdD5/yxSuuTej5/D6qkbjfmpYppILJaaJxIw3XWOHwNxQ5XZvrreyS1nOdxCBWHElWMjmma8xl+gq1bt+7fv5+oVx5rKbTJBcWxSJOTk+r3p7yqUTOqEG2zMLtUJ9C0KXL6OfPv8h7MPuqrJZdCbc/kWpVw/6cxAkYeL1Qhe1Gq6Jn7F0K+wtvK6oevIXWn3WqzmlClivPtMC7IWrtr1y7szPHjx8+fPz8+Pn7VfN85X/jZ29u7d+9exSX5NYCaUSWrxUJdH3AF4sb28YFn0pEp5yZSSRj+0o3/ddZjH/FL30YBjDwVpUo6MFIRqtD91Fyb1WY1oUQVTIriFXe0JBfWudcN6HJtqILKxV/+K5fqyBE98yW5xK4CXdfS8Ts4Wm5fznCQNicDI8b+VkWpgplKYxL9m3M23BrMW9o8HIGmLam7xssqqg0lqhClvA41vmzUjCrZB3py+XTIuCnY7TUF/FsSUz9RNCyaFoue/tOQobhr6gn4GyI9nySGgU1kq6RVMW4OiIYOvNW1AxZq/Zl0+Joen9cTygeZtfIfwqiOElSRMKPGL+P2Cr/fv2fPHrmdWYXSkmfHjh2NjY2SUllQf62oQgyZCB//fDDf3e/B5icS0y9ouvEEFqtADjilZaLRC1/PW0PI/2j6ziEra6WpQo7IiS+4yImRSczukrOFgMwme2uN0lQh6qjl3ShesW3btiXzwcQrKyuERn19fS0tLbt3796+ffsLDvBz586dPp+vq6uL8Gl+fj6RSASDQU/Pd1REzahizM+DbHr5XDBXg42jIeR/LDr8F1r8NqrHVBow/mVo6KqZoqdXzkf6PhUylnZ32IASR078nq4/fHpgxamSnNmZaw/Dh39JSy6ZAq4BReSCTHKhO7VovLAOWOdqghJUiUQi6k+p2xDsN99dZom7qhC6rkOeWCyG/CAajSaTSSIu46KyY3xJgVdWRZVDDaligO7Gxr6Zq5Srx6ZA69OR4a8k7/ZqsZt6OqilVjKRyeRtf+Tk7wf9jwfyWiSYc+BtmdCVrGP9rjhVtORiqONdrgy4ZJETv6MlHz5ZQWDMaiYev/q9YPObQi1PI7/sy9UMJahy9uxZFZdmA3Hy5ElL1rKAhbEqqhxqTRW0SIujXi5nRg5cGiPdZ1x/CPnfEG59Jtz6FuPvJYYSkz9fEf+mYPNjiemdrkW74lQx/ok/8W/mXZVOMYwb78Md741PfDe9PKhHp7XodGZ5MH7te6GuDxsdkZvz/Y8lrn3fuOW5VralBFUOHTpUM6rQUEdHhydnjyILC8Yfu8sGzhvumVVdhVBjqgi0xN1I76ccClfmgRYGmh+PX/uRZvyFfY0WVpwqUFxPBSM9chOkm7RYtoB/CzYkYBxbDMI79gDMB/y9IT76j1m9Rn+1L0EVPJZ79+51dnYy/cDShSrgxRdfvHbtmtfXuRDNF7ruqQj8tIoH93Sh9lQBenIpcuyzxnUV17aS8mHakzcnZvfi61iVOlBxqpjIpiM3Qh3vzn08QPEjYD4OM3rhG1m9RiF+6bBenPvFxcXe3t6K35aCVslf/0KhEJGD+rtTAGVVHk9aHPTO04sUVbBRVGGidC1B3BJsfcq8XqGufPKvw02hIx9JLQ0ad/7m82qqQhXjh54OXw93fdSwG2oyG16l/9HI+a/S33ySVgUlqOIEw0d8fOXKlYMHD243/zQPLO3wDspSSXd3N1ollsHTO0QBHIPAIlvZoFOYTavGCoFebAhVBFpWS98/Hz75h0b4m6OpeQ9DRzvfF7/2fS0dLBIrQ5U8W23rtSoGjBe/JBZjw38ZaiktsxGoHHw2ObPTuTtXA3igig00OxaLTU5O9vX1yTO/t66+lrY4yENOVNzv94+MjITDYXv14gu1YbXU0dzcjCGS4usBlTQ1NVmVVgh5X/1VI5hDmkX5QhOxkb8PH3qf4ZL58FhMJTP9HIMbvoagryHU8lS4/zPJ2Z162nhpaK4SOwElgq1PGm+hcB5tz+ixPFSBcolbvmDT2sz+R8M9v2KycU0rZqOogK6FxmJDfx5qe6vxNouHRsb4YqT4NkUO/ULi8r9mkktmqZqiHKoAp4pjajAIo6OjAwMDGByfz7dr166XHIBOqDUGZGhoaGZmBprZxZ1AZT3BtfO7Hlg1Vg7rjKAqAsZGf0DgnNHDV1O3fPHL34m9/LXY8FeMY/Qfkjf+J73Yp6fvo7jGOCpsvKLJxhUPjtTDI5NczB/YUK0Wd2U2D6PFQmqOHMY7xtLh9OKxxPUfxEf++qHAU9sygRFNN+7KVZG24iiTKnXU8XpDnSp11KGEOlXqqEMJdarUUYcS6lSpow4l1KlSRx0KePDg/wHBQXmhr71A+AAAAABJRU5ErkJggg==;" parent="-Dfz00HVPd_Sje24WFme-0" vertex="1">
          <mxGeometry x="80" y="4.66000000000011" width="40" height="10.67" as="geometry" />
        </mxCell>
        <mxCell id="QCFTo49A7_HSJXKzQKgp-0" value="&lt;div style=&quot;font-size: 11px;&quot;&gt;&lt;font style=&quot;font-size: 11px;&quot;&gt;Warehouse&lt;/font&gt;&lt;/div&gt;&lt;div style=&quot;font-size: 11px;&quot;&gt;&lt;font style=&quot;font-size: 11px;&quot;&gt;FR: GR010 (MAIN WHSE)&amp;nbsp;&lt;/font&gt;&lt;/div&gt;&lt;div style=&quot;font-size: 11px;&quot;&gt;&lt;font style=&quot;font-size: 11px;&quot;&gt;TO: BPCODE + IT (TRANSIT)&lt;/font&gt;&lt;/div&gt;" style="strokeWidth=1;html=1;shape=mxgraph.flowchart.annotation_2;align=left;labelPosition=right;pointerEvents=1;" vertex="1" parent="QCFTo49A7_HSJXKzQKgp-3">
          <mxGeometry x="125" y="7.5" width="42.5" height="85" as="geometry" />
        </mxCell>
        <mxCell id="gwo3dm8ZFLVo4d31nm-l-17" value="JAI" style="swimlane;html=1;startSize=20;horizontal=0;fillColor=#A9C4EB;" parent="gwo3dm8ZFLVo4d31nm-l-2" vertex="1">
          <mxGeometry y="170" width="1310" height="150" as="geometry" />
        </mxCell>
        <mxCell id="gwo3dm8ZFLVo4d31nm-l-19" style="edgeStyle=orthogonalEdgeStyle;rounded=0;orthogonalLoop=1;jettySize=auto;html=1;entryX=-0.005;entryY=0.544;entryDx=0;entryDy=0;entryPerimeter=0;" parent="gwo3dm8ZFLVo4d31nm-l-17" edge="1">
          <mxGeometry relative="1" as="geometry">
            <mxPoint x="1276" y="93.83333333333348" as="sourcePoint" />
          </mxGeometry>
        </mxCell>
        <mxCell id="gwo3dm8ZFLVo4d31nm-l-23" value="" style="group;whiteSpace=wrap;html=1;" parent="gwo3dm8ZFLVo4d31nm-l-17" vertex="1" connectable="0">
          <mxGeometry x="544" y="30" width="120" height="90" as="geometry" />
        </mxCell>
        <mxCell id="gwo3dm8ZFLVo4d31nm-l-24" value="&lt;span style=&quot;font-size: 10px;&quot;&gt;Print DR&lt;/span&gt;" style="verticalLabelPosition=middle;verticalAlign=middle;html=1;shape=trapezoid;perimeter=trapezoidPerimeter;whiteSpace=wrap;size=0.23;arcSize=10;flipV=1;labelPosition=center;align=center;" parent="gwo3dm8ZFLVo4d31nm-l-23" vertex="1">
          <mxGeometry y="30" width="120" height="60" as="geometry" />
        </mxCell>
        <mxCell id="gwo3dm8ZFLVo4d31nm-l-25" value="02" style="rounded=0;whiteSpace=wrap;html=1;" parent="gwo3dm8ZFLVo4d31nm-l-23" vertex="1">
          <mxGeometry y="10" width="120" height="20" as="geometry" />
        </mxCell>
        <mxCell id="LBMI-nxfrVshLbeg8wKX-1" value="" style="group;fillColor=#D4E1F5;strokeColor=#6c8ebf;" parent="gwo3dm8ZFLVo4d31nm-l-17" vertex="1" connectable="0">
          <mxGeometry x="371" y="35.5" width="125" height="87.5" as="geometry" />
        </mxCell>
        <mxCell id="LBMI-nxfrVshLbeg8wKX-2" value="Convert ITR&lt;div&gt;To DR&lt;/div&gt;" style="rounded=0;whiteSpace=wrap;html=1;fillColor=#D4E1F5;" parent="LBMI-nxfrVshLbeg8wKX-1" vertex="1">
          <mxGeometry y="20" width="125" height="67.5" as="geometry" />
        </mxCell>
        <mxCell id="LBMI-nxfrVshLbeg8wKX-3" value="01" style="rounded=0;whiteSpace=wrap;html=1;" parent="LBMI-nxfrVshLbeg8wKX-1" vertex="1">
          <mxGeometry width="125" height="20" as="geometry" />
        </mxCell>
        <mxCell id="LBMI-nxfrVshLbeg8wKX-4" value="" style="shape=image;imageAspect=0;aspect=fixed;verticalLabelPosition=bottom;verticalAlign=top;image=data:image/png,iVBORw0KGgoAAAANSUhEUgAAAQ4AAABICAIAAACIpYw3AAAABGdBTUEAALGPC/xhBQAAAAlwSFlzAAAScwAAEnMBjCK5BwAAABh0RVh0U29mdHdhcmUAcGFpbnQubmV0IDQuMC41ZYUyZQAAHZpJREFUeF7tnXlwHNldx1e2N7ubZHezkJtUlqoQyElVkqIChFAhSUEFAhR/sAHyB/+EUEk4iyqqQiUVKAhQVEgCodZJ1l6vb41GhyXLlq3Th3xJ9kq2ZPnSZVuybB2e++4e8+n+tdqtnuv1aGa0x3yra2rm9Tt+773f9/1+v9c93Y88qKOOOhRQp0oddSihTpU66lBCnSp11KGEOlXqqEMJdarUUYcS6lSpow4lVJ4qmqYlEolwOHz//v2lVSwvLwcCgWg0mkwmdV23stbxWgTzyywLMpmMlfrqR2Wokk6n7927d+HChUOHDu3bt+/FF1984YUXfrIWP/3pT7dt27Zjx479+/d3dnaeOXNmenoa/lRqNBcXF2/dunVbGchslVQA/LeKecfc3NzCwgLisXawWKRSqYovFgxjkb4zNZFIJGvCKlBN3L17FwVgogEqUZtGa4B1UYUpRwNOnDixc+fOrVu3/vjHP7ZooQAyU4Qvu3bt6unpmZycRI1kWMsYXPReZFDE888/Pz4+bhVWQCwWg+dW4bJAi3yyXmzfvp3VhMViaGhodnZWlJgmylYpCp4+fVpaKQTabWlpmZmZIXPZDSnizp07tiYMDw9bqa9+lEkVVlmWsY6ODobDE0MKgenEELW3t4+NjYVCIU/rLnOPgfIqRnNzs7rSQBVWSqtkhSCLBb1GEmjDolOegaUXmGir0sKgOTA4OMjcWSWrA6hCv6S51y9VjBUpm8WRqCBJXKBO1m8cOajIpNKc1XZhwCsWaau8FxBBWVWUQjWo4gS9loX/xo0bir22QWabKlTid6CpqWnv3r2Mp3OmaMIqWR0QqU6tYmVlxVNfXsnwTJWrV6/iQlSDJE5QP2Cmg8Gg1XZhYIXQBqukF5w6dcqqohSqTRUb0muiC6thBTipsnv3bhYOF9BdjIlkAAcPHnzNqG8toUoVBhf3AJ+YubSGvPrw+Xwlg28EGx0dtQp4BCuuYnBfM6oI8MrolKJ5cVElbxHmDiMjeRobG8XTCwQCLHzg2rVrqVRKctpgkcp7lhHD4J89e7a3t7e/v5/AfW5uLplMWqfNDJS6cuUKnzQhifPz82ZlVzE1SEh+qu3r68N94JPM8XhccrogzaF4XV1dhw8fPnnyJDU4mxNQJ4vC0tLSyMgIUiEbEuKW2wGwDanw3LlzLvnzjpsTSlShFqaN8F3GujbAl7h586YlQWEw6yzDVhmPoAlGzaqoKGpMFQETSe9KTiEZSlKFRFRN8jBcEq5MTEwYIf/WrdjkcDgsOW2g1nIW3mK3JRHVx0s0Tb6xYtpf9uzZg84JoyKRCIlSliakYHd3t6Ts27ePSpBBCtqVsGzl2tKFhQXJCZyZqcSlGzQN5ZhQyWDnZNYGBgboHSMAXPJLNj4ZN+hKBqu6fFClCmS1a68NWG9UllWiYQbIKuMdjG/JJsCGUAXAFhbL4hJytiRVWDXRRclDnZKIckgKXculCqu+nMXflrPOVUmUgU+0X1LgmzCKhVxSOEsTZmUPenp6JBEJMWtyFkiiAAI4zcWdO3fsMZfMAklh0mdmZiQnXT5+/Lik23lswYCEZ8jf3NwsKZKHTzsbgskKUghKVIHc61HHMsC4wwGr+aJYp0+4a9cuXHmrrsLYKKqA8fFxdarQHRwMJ+jd3bt3iU8kA72wNzO8UgXVlKFmdrA5WI/79+9jN1pbW0lEBpGzOFUEsAUX6OWXX8anslWL/NJZwIC/9NJLko545FwxgV+6Y8cOSUe5yUZmWkRIUqgKfYCxAO/ryJEjiIoZEQ7Mzs6K/GRGMFv+trY2EvHrRNRCKE0VhrtsD6c80B8WCYbAkqAwWCd27txpFSsX6IRVXWFsIFXQmOJ7GwyUTRV0BbbYYHAQm/EUFcFNwm+xB9YrVYaGhqQeiMdPux7sHqEILpCklKQKriBKRSL5wdjYmKSTH1dCEolJJBHZcMxIkXoA1gYCyFkoxCmWcvnJWIkYkp9PPC57aRgeHi4kP3XyKT8LoQRVqM4e0JqBCWYttHtSCGQo43KKCxRvb2+nquLNbSBVAHpWRDxO2VQpDhQRW21X5ZUqRCMy2qSwBhdyj4tThciHtVwSBax3uF5y1ufzUSezb6+AdM3Ktwoy4DbLWb/fj4pjNuUnKwV8lpApVzZ45ZLfOqGGElSJx+O2j6sOBBKZGBcWAMAXuiHpQLIVwuXLl63mi4KxsP2K9UDC1ryzbmNjqcIAIqElSg6Q3EkVGXAnZOTlLN9lJQZeqWIv3oAKcaKoijXbFU0VpwqWLXf9xlOSs/v37+fn0tIScvKTqbl9+zYBjAvXr1+XHiE5vAKYULMCo1FohleCoXNtimCdJA8Q+SF/rvyFUIIqLNvO8EgFuJKQnkAKIRg1lAww1vzEzDF22Fa8Q9vjdAHPkh5azRcFbglDaRVbBxg1liKr0gLwShXm/pgDvb29nZ2dzA1qJ3PsFXj2lig5YJptqqAxMuBOMFCEGeKRC8Qv90oVVOrUqVOSKJC+EKtMTk7aBChOFQYhVy/ts0IVggr5CWgd8VwgUc7CKPFOIY9zbPkCWOVHRkagltmIe02RPHyRK7+5BHahBFUGBwelOhWQE2cG0UtyFLGwV/AQt5Vlz26CnrOKWJlKgSVBSq0fOADFzTEKxwxZuUuB7uASWCVXwZiwBBBKYjNRF/VRFVCk0Fw6NaDQDhhAY3BvJBvKQTabKjYZnCBwzz2LDMwaxUl3dYH1USQsThUhgwu5VLErZ6V+vjA4K6EI3cEWSRzvXNypp7m5memTYbHlR9NcNgBSGaIURgmqyOaGIlybfSWB9ADOoPQsh/Tq8OHD0qWSIC60J74iwOJZVefD+qligw5CS+fypgKmtpAPRoUqVAH2NXvCX2RwUiW38omJCfusTRUqF7Agolv23qtA9mTXTxU8JXHA+Lx06dLNohAfxBLLVCdITlQGZ6RO4Nwlkmz0d3R01L4sC5DWvmCaFyWoYm/YqQDrbAvkFYRizA0Bn2IN+M0V8b5s4CYVabqCVBGgqS5npiTsywguILYKVUhnJZJsePMIgNMiP9HI3EuxDIictalCDa7K+clE2NEshoXE9VMFdbf987Nnz0oeF1zCuH4CZLZDWaqVuEVg5TCB/Pamgn3BNC9KUEWqUIS6TciFp4JkJuBhJqyGKwGUjOjQaiAHFacKXcACE+NaZRRADG0VXguqKkkVjPD4+Lgs1UDuqp6bm7NTOjo67A1cPp0bsmJzSGd8sEv4kJLNhm2sCMk4tX6qUGd/f7+kMOyyWWyDDDSBoeBTUsRK2xf7JRGwuEglkIHeIT9qY9NeMgP70lztqAJUrlGsH5gge8ejgii0bIOKU0VAsG6VUQDKYRVbC2bdpgr6jdq5gAfv3MZEPOIlStEp22sgEW8EXWEQ0CdnAGlTBQFIZBzQLQIDlI+lmp7ahD9//jzyVIQqtGhzlRbHxsagKC3yiZDiruOBi2BTU1Nkg/ZHjx6F/1CCmAQXUe5/B5gXUmz5sefIjxbBMVt+ThW/y6kEVexVRxHkJ/CgS3TAqqLSoGamk45ZTRYFTpo6qVCpQmJXiSrMjWJHQHd3t1VsLZDZpooKqAcVoRRAaZwCEOkCSbH9eKEKmscXOcUn2fjJmNgpfJfNqPVTRQABmD67flSLFvmkaUnBjWSc4YAzouYspWSypCxFqIouiLQCl/yAphkWq+18KEEVDLpUpA7axr7Pzs4Wb7hsMMHql1OQhKXO+lEKjB3TbDWzFlWiyuLioky8CvBvrWJrwYBAFWP+iwKNwQ9hebZ5AljUWImpnAzSCl9QNSIEFm+znPH3IVm8iSTJ7DQ4An6iJyzn5EEeFn6znKGONlXgpyQig6Q4Uejs/Py87BYCq7FVUaHH8vKy2QnDM8TQYSFzcyKtfR2JqJ2GRH5XNuQXnhdBCaqglM5KPYFl6caNG3LptIJg2ph1q42iQPKhoSFMreIGAPkvXrxoNbMWVaIK7nVFqHLz5k2UuxDQFRzjlZWV3AtWlGVVxkrDAeYLECQgFYl8SnHGUKI4ycz4wzfyt7S0sBJ1dXURBUkGATMuBYEdP1y/fl1SRkdHqUcSbTjP0oSVagIyYxOIgpqamlj4aXFgYOD27dtCeCuTKRsyoG/ID4vIhvc1PDwMAVzZcuXnJ2VzpXKhBFXs22bKA3qAlSTsY8hy56k8qFsJIC61vcVREsyHa6oEVaIKU6s+vEyqVWxDUVKlXqsoQZU7jkcKlA2pAX09ceKE629AXuFJ71mERO89bcvaC6ETVaKK7aOrwL55vo4NQQmqoJr2NsL6IZwhzj5+/LhYeasZZeC8qntfGHSKsAo6b14qDkrBZ2nLiYpTBalw/e1NHhUUubelCLIPshp+E76TcWQ0PalpSV3XdE4YKUaylbWOoihBFcCsK2qnCqQqlAnfzOfzEfapBzNMLX6q1FMSNGTf8gDh1ffB9u7dmytSxamCaT1w4IBVQAHUKdfCFUGvcZSyekoLjiemtkbP/En4yMfCHe8OtT4Vans61PlspOfXY8NfTd7cp8VuwSYpZH7WkR+lqcKQy4a0NWkVBYRBiS9cuIAuGnNbFPF43L43uyQaGxudW3B0wTpRCnAsd3+9UlShj9jSxcXFtrY29SElJ1IRl1u1lEY2E7+TuP7D8NGPBf2PBps2hZoeyXsEfA3B5jdGB347ccuvpYOQy6qgjhyUpgpglW0x/5FsTV0VAGEuX75cfH+ZZdXKrYDTp09bxUzcvn3bOqEAQggXb71ShRiPvtjArMFzdH1iYuLgwYOKO3JOYOuox5KmIHCnNF2LJ679INT+rqDFhwbzeEiPnKOBnMGmzcGjH03d6cxmM6azVueMG0pUYeDC4bCnuzDKABrW3t5e6MoGUH/YF2swyuqcbxwe9fvZyOnae/BEFYD12+0APyUsKW+5odTg4KAlSmFgEzKJhcixzwf9m3P4UOIINjUE/JswQbELf0MwUw9gcqFEFQFhKNFFVW0LQLGIwtFyp6KDoJd/p7AGu3Sd2uRamwro49WrV50CeKVKZUHHS3pf2JPU8nCw8+dNY1LcjJQ4Iie/mEkuE/q7puB1Dg9UYeASiYT9X83qYfv27UQLrnkaGhqyTiugv78/d5rtG2lVQCzxyqFKd3d3Ua3lVDZ9/0IQpwvLkKP6cqylEE5XQceM2Cbc+6uwpR66OOGBKoAJIyqdmppi7a+qeUEvZf9KgK/vvOGvOBBsenraKulAJBKBhFamUsCFc/57YQOpQrvF/0fBnGjJpfDhXwz6CxqTAKxof2ek95ORY58LD/xWqOuDoebHjcSCbGmInHkuq3t4WcBrHt6oYgPzQty8Y8eO6hGmtbUVhkBOMDc3Z6UqAKmc91nYgOTOP80WB/1yXsfYQKrI7bpFoOvp6OnnVg3FGnXHPgRb3hQ59cfpxWNZ7eGYYC60+O349R+FD38g1FQgsPFvSU6/pDuCFnOdTGTXHtBUf2DkMScKry2uxW5mls+lF09k7l/QE3ezRuRj2D2ppASyeJLUktJTK1poPLM0mFminvNIq2tRzhiH2VztUSZVAP1nnUafqmdhLl26ZE5Atre310pSwJEjRywRc3Dx4kUrkwL27dtn34yzIVRhVLu6ukreEJS65c8XxxsWI3zkI6nlU1pWY7as3KtgVKGBlg4kxr4V8j+eU9w4wh3vySQe7nqj96G+Xwv3fDzc84mHR/+ntMQCZ7VMLD71QrD748GWJ8UPDPq3hNqeCfd/OjG7B2pKJcWhJ5eSU9sjA58Ltb8j6H+DsdmASfRvDrY8Fer6QOzCN1Ir5/RsZe6Q8oryqWIjlUoRBsiN0JXlDE4XioKaqm9eIcDk5KQlWQ7u37+PZ2VlLQVy2nfL1p4qdOTAgQPYVZE8L5BNS4fDRz4cyHG9DPIc/WUtPq+wmGeTM7sDzY+5ajAOf0Ps0jetXOhxfC7U8oQ7T+uTeuxWOjYX6v2NQgYKXQ8NfFZLFtyZwBhpeiox81Ko4+dCvvw+oRxB/+OR01/SMFYmrPI1QQWoIhLziUtN8N3Y2IiSVYQzVDI7O+spHMf7KnKPGQ6Ep8f/2f8irj1VsI3if4rkecG59J3DLN65UUqg/R1adBpXRkWfYFx87Nvmlcq1LhzVHnhbNhOV+D6bnypPpZcGw53vNyxJ/mCpgXTORvt/M5uJ0Jg0ugoEhCjx2IWvGe5igdhp9TBdSvIcfDYTGHU6hzVABajigqZp8sDM9vZ2wuh1cmZgYMDTu1PwWIorx8urz01TAb6lhD21pAqDRnyicMHRUPHomS+79Ns8NiWnX1QhiQ09Ewl3fyxPVb5HkresxxHlp0rzE7hG2JOgf216nqMhMfHvhjfoAIGHlglHB/8o5PN4Laj97bDFqqUmqDxVbLCEE8yMjY01r32uhydgJTxd2yaqwbiJnjHBApGHL9FolPjHE3unzEdm1YAqSIU1xpgU3+9yIpsJhzrfm7MSN4S6PqivmgJFkDk115Z3UY+e/TNsk5EnL1WMlV52ohWOjvdoqYe9M8OldHTkG2YlD5s2rZCRYh7m/kROMEZipPsTxs04Hnq5LlSRKgJR1vn5+WrfGiOQJghyMC9nzpwZGRmBG7iFfX19fr8f1nmVQZ6tUVWqIBKWpLu7W56SCqyxKwUtdDnYvMWtQwQYY/9k5VAGVNEzYeN+yrW1cYSPfEQ3d40LUOXhEfRtCjZuDjUWvOUs5N+Umm+VFgFESd7rNezSWorShQAxycDn4uP/nLjyn5GzXw4e+FlXHiNbU0P86n+rD9c6UXWq2GClx/lRj6rXD1TQhpXkHSgxtrEMqlgNr8KVyHdq3r9/f09Pz40bN+IFXsRTDNlsav6A4buv9XyCzY9m7hpPTvEGc4WPnvlSHj/qwFv1pPFWgkJUMSxA69Ox819PLRxJr5xLzreHTz8XbH4s4HdzBmmxIdIgyGqJyMBn3Hko1fWh1MrDnXrIkI7PRwb/wL1tgKidz2bTBR9RW1nUjirmcpk9e/asKM2rBag1DIcq9pOpVIAt6s/B4OAg3b948SLcwIBQp2wEMyz2pyLIim4nb/wfK+sa7eFoeVMmUsbbHrEr2cTV/8qtMND6pBY1vNCCVqXtLcl7feYlD/OiiLkLHbv+Q2OzeG1OSBU59nm7p+nlU3nytL89Hb5KPZIHGHqTzWbSgXDvJ9faFr5vSt7c48nVLBu1o4qAiL+M+2o3Fo2NjQQ56lSBXYr/glwP0MfExHcderN6tD6txVUfZutCanpHbtQRbHmjFjYekJWXKpiO2OjfEZe69FXX4uEjH3Jl5oj0fMLgkpknPvK3kMd5ltbj49/Jq/rG0nDvWC61Iie/aHKv6mzxQBUEWlhYkCcAyE9J94Tl5eVXHVXA9PS0ugNWG6ow/okr/xHyrdEb42h7SouVfjFgXiRntuUJCVrerEWucjYvVYItj6WXT+cqtyHepW+5MnNEuj+uGyeBFu76sOFuOc6Gm5/IxG6ateUcRolk+ND7XXYv3P5OTavFDTgeqJJefSdRZ2cnqoDk1gkvwP0QT/1VBAQ+evToK48qenLqhVyqBJsfzwRKPKm6EOIT/+Ja5o0K257OxI3/uuWnSuub9disFHcC1U7e3JsrnlDFcNESd4Mtj7v1vuNdydkdyZmXUnmP2Z0YpZxoanPG9A+rDQ9UYWW1dMFER0fH3NwclpdTKrQhTzAY9OTxv3KwzXxFjCLJa0MVkFk4YhqBNdoW9G9Ozu62cqjDiDG08ODvmvdQPqzNOA6+RzdD5/yxSuuTej5/D6qkbjfmpYppILJaaJxIw3XWOHwNxQ5XZvrreyS1nOdxCBWHElWMjmma8xl+gq1bt+7fv5+oVx5rKbTJBcWxSJOTk+r3p7yqUTOqEG2zMLtUJ9C0KXL6OfPv8h7MPuqrJZdCbc/kWpVw/6cxAkYeL1Qhe1Gq6Jn7F0K+wtvK6oevIXWn3WqzmlClivPtMC7IWrtr1y7szPHjx8+fPz8+Pn7VfN85X/jZ29u7d+9exSX5NYCaUSWrxUJdH3AF4sb28YFn0pEp5yZSSRj+0o3/ddZjH/FL30YBjDwVpUo6MFIRqtD91Fyb1WY1oUQVTIriFXe0JBfWudcN6HJtqILKxV/+K5fqyBE98yW5xK4CXdfS8Ts4Wm5fznCQNicDI8b+VkWpgplKYxL9m3M23BrMW9o8HIGmLam7xssqqg0lqhClvA41vmzUjCrZB3py+XTIuCnY7TUF/FsSUz9RNCyaFoue/tOQobhr6gn4GyI9nySGgU1kq6RVMW4OiIYOvNW1AxZq/Zl0+Joen9cTygeZtfIfwqiOElSRMKPGL+P2Cr/fv2fPHrmdWYXSkmfHjh2NjY2SUllQf62oQgyZCB//fDDf3e/B5icS0y9ouvEEFqtADjilZaLRC1/PW0PI/2j6ziEra6WpQo7IiS+4yImRSczukrOFgMwme2uN0lQh6qjl3ShesW3btiXzwcQrKyuERn19fS0tLbt3796+ffsLDvBz586dPp+vq6uL8Gl+fj6RSASDQU/Pd1REzahizM+DbHr5XDBXg42jIeR/LDr8F1r8NqrHVBow/mVo6KqZoqdXzkf6PhUylnZ32IASR078nq4/fHpgxamSnNmZaw/Dh39JSy6ZAq4BReSCTHKhO7VovLAOWOdqghJUiUQi6k+p2xDsN99dZom7qhC6rkOeWCyG/CAajSaTSSIu46KyY3xJgVdWRZVDDaligO7Gxr6Zq5Srx6ZA69OR4a8k7/ZqsZt6OqilVjKRyeRtf+Tk7wf9jwfyWiSYc+BtmdCVrGP9rjhVtORiqONdrgy4ZJETv6MlHz5ZQWDMaiYev/q9YPObQi1PI7/sy9UMJahy9uxZFZdmA3Hy5ElL1rKAhbEqqhxqTRW0SIujXi5nRg5cGiPdZ1x/CPnfEG59Jtz6FuPvJYYSkz9fEf+mYPNjiemdrkW74lQx/ok/8W/mXZVOMYwb78Md741PfDe9PKhHp7XodGZ5MH7te6GuDxsdkZvz/Y8lrn3fuOW5VralBFUOHTpUM6rQUEdHhydnjyILC8Yfu8sGzhvumVVdhVBjqgi0xN1I76ccClfmgRYGmh+PX/uRZvyFfY0WVpwqUFxPBSM9chOkm7RYtoB/CzYkYBxbDMI79gDMB/y9IT76j1m9Rn+1L0EVPJZ79+51dnYy/cDShSrgxRdfvHbtmtfXuRDNF7ruqQj8tIoH93Sh9lQBenIpcuyzxnUV17aS8mHakzcnZvfi61iVOlBxqpjIpiM3Qh3vzn08QPEjYD4OM3rhG1m9RiF+6bBenPvFxcXe3t6K35aCVslf/0KhEJGD+rtTAGVVHk9aHPTO04sUVbBRVGGidC1B3BJsfcq8XqGufPKvw02hIx9JLQ0ad/7m82qqQhXjh54OXw93fdSwG2oyG16l/9HI+a/S33ySVgUlqOIEw0d8fOXKlYMHD243/zQPLO3wDspSSXd3N1ollsHTO0QBHIPAIlvZoFOYTavGCoFebAhVBFpWS98/Hz75h0b4m6OpeQ9DRzvfF7/2fS0dLBIrQ5U8W23rtSoGjBe/JBZjw38ZaiktsxGoHHw2ObPTuTtXA3igig00OxaLTU5O9vX1yTO/t66+lrY4yENOVNzv94+MjITDYXv14gu1YbXU0dzcjCGS4usBlTQ1NVmVVgh5X/1VI5hDmkX5QhOxkb8PH3qf4ZL58FhMJTP9HIMbvoagryHU8lS4/zPJ2Z162nhpaK4SOwElgq1PGm+hcB5tz+ixPFSBcolbvmDT2sz+R8M9v2KycU0rZqOogK6FxmJDfx5qe6vxNouHRsb4YqT4NkUO/ULi8r9mkktmqZqiHKoAp4pjajAIo6OjAwMDGByfz7dr166XHIBOqDUGZGhoaGZmBprZxZ1AZT3BtfO7Hlg1Vg7rjKAqAsZGf0DgnNHDV1O3fPHL34m9/LXY8FeMY/Qfkjf+J73Yp6fvo7jGOCpsvKLJxhUPjtTDI5NczB/YUK0Wd2U2D6PFQmqOHMY7xtLh9OKxxPUfxEf++qHAU9sygRFNN+7KVZG24iiTKnXU8XpDnSp11KGEOlXqqEMJdarUUYcS6lSpow4l1KlSRx0KePDg/wHBQXmhr71A+AAAAABJRU5ErkJggg==;" parent="LBMI-nxfrVshLbeg8wKX-1" vertex="1">
          <mxGeometry x="80" y="4.66000000000011" width="40" height="10.67" as="geometry" />
        </mxCell>
        <mxCell id="LBMI-nxfrVshLbeg8wKX-6" style="edgeStyle=orthogonalEdgeStyle;rounded=0;orthogonalLoop=1;jettySize=auto;html=1;entryX=0;entryY=0.5;entryDx=0;entryDy=0;" parent="gwo3dm8ZFLVo4d31nm-l-17" source="LBMI-nxfrVshLbeg8wKX-2" target="gwo3dm8ZFLVo4d31nm-l-24" edge="1">
          <mxGeometry relative="1" as="geometry" />
        </mxCell>
        <mxCell id="gwo3dm8ZFLVo4d31nm-l-35" value="CHECKER" style="swimlane;html=1;startSize=20;horizontal=0;fillColor=#A9C4EB;" parent="gwo3dm8ZFLVo4d31nm-l-2" vertex="1">
          <mxGeometry y="320" width="1310" height="150" as="geometry">
            <mxRectangle y="320" width="1020" height="30" as="alternateBounds" />
          </mxGeometry>
        </mxCell>
        <mxCell id="gwo3dm8ZFLVo4d31nm-l-36" value="" style="group;whiteSpace=wrap;html=1;" parent="gwo3dm8ZFLVo4d31nm-l-35" vertex="1" connectable="0">
          <mxGeometry x="544" y="29.999999999999993" width="120" height="90" as="geometry" />
        </mxCell>
        <mxCell id="gwo3dm8ZFLVo4d31nm-l-37" value="&lt;span style=&quot;font-size: 11px;&quot;&gt;Prepare &amp;amp; Check&lt;/span&gt;&lt;div&gt;&lt;span style=&quot;font-size: 11px;&quot;&gt;Item&lt;/span&gt;&lt;/div&gt;" style="verticalLabelPosition=middle;verticalAlign=middle;html=1;shape=trapezoid;perimeter=trapezoidPerimeter;whiteSpace=wrap;size=0.23;arcSize=10;flipV=1;labelPosition=center;align=center;" parent="gwo3dm8ZFLVo4d31nm-l-36" vertex="1">
          <mxGeometry y="30" width="120" height="60" as="geometry" />
        </mxCell>
        <mxCell id="gwo3dm8ZFLVo4d31nm-l-38" value="01" style="rounded=0;whiteSpace=wrap;html=1;" parent="gwo3dm8ZFLVo4d31nm-l-36" vertex="1">
          <mxGeometry y="10" width="120" height="20" as="geometry" />
        </mxCell>
        <mxCell id="LBMI-nxfrVshLbeg8wKX-7" value="" style="group;whiteSpace=wrap;html=1;" parent="gwo3dm8ZFLVo4d31nm-l-35" vertex="1" connectable="0">
          <mxGeometry x="729" y="30" width="120" height="90" as="geometry" />
        </mxCell>
        <mxCell id="LBMI-nxfrVshLbeg8wKX-8" value="&lt;span style=&quot;font-size: 11px;&quot;&gt;Load Item In&lt;/span&gt;&lt;div&gt;&lt;span style=&quot;font-size: 11px;&quot;&gt;Delivery Van&lt;/span&gt;&lt;/div&gt;" style="verticalLabelPosition=middle;verticalAlign=middle;html=1;shape=trapezoid;perimeter=trapezoidPerimeter;whiteSpace=wrap;size=0.23;arcSize=10;flipV=1;labelPosition=center;align=center;" parent="LBMI-nxfrVshLbeg8wKX-7" vertex="1">
          <mxGeometry y="30" width="120" height="60" as="geometry" />
        </mxCell>
        <mxCell id="LBMI-nxfrVshLbeg8wKX-9" value="02" style="rounded=0;whiteSpace=wrap;html=1;" parent="LBMI-nxfrVshLbeg8wKX-7" vertex="1">
          <mxGeometry y="10" width="120" height="20" as="geometry" />
        </mxCell>
        <mxCell id="LBMI-nxfrVshLbeg8wKX-10" style="edgeStyle=orthogonalEdgeStyle;rounded=0;orthogonalLoop=1;jettySize=auto;html=1;entryX=0;entryY=0.5;entryDx=0;entryDy=0;" parent="gwo3dm8ZFLVo4d31nm-l-35" source="gwo3dm8ZFLVo4d31nm-l-37" target="LBMI-nxfrVshLbeg8wKX-8" edge="1">
          <mxGeometry relative="1" as="geometry" />
        </mxCell>
        <mxCell id="gwo3dm8ZFLVo4d31nm-l-43" style="edgeStyle=orthogonalEdgeStyle;rounded=0;orthogonalLoop=1;jettySize=auto;html=1;entryX=0.5;entryY=0;entryDx=0;entryDy=0;" parent="gwo3dm8ZFLVo4d31nm-l-2" edge="1">
          <mxGeometry relative="1" as="geometry">
            <mxPoint x="1213.5" y="147" as="sourcePoint" />
          </mxGeometry>
        </mxCell>
        <mxCell id="gwo3dm8ZFLVo4d31nm-l-46" style="edgeStyle=orthogonalEdgeStyle;rounded=0;orthogonalLoop=1;jettySize=auto;html=1;entryX=0.5;entryY=0;entryDx=0;entryDy=0;exitX=0.5;exitY=1;exitDx=0;exitDy=0;" parent="gwo3dm8ZFLVo4d31nm-l-2" source="gwo3dm8ZFLVo4d31nm-l-24" target="gwo3dm8ZFLVo4d31nm-l-38" edge="1">
          <mxGeometry relative="1" as="geometry">
            <mxPoint x="870" y="350" as="targetPoint" />
            <mxPoint x="650" y="300" as="sourcePoint" />
          </mxGeometry>
        </mxCell>
        <mxCell id="LBMI-nxfrVshLbeg8wKX-5" style="edgeStyle=orthogonalEdgeStyle;rounded=0;orthogonalLoop=1;jettySize=auto;html=1;entryX=0.5;entryY=0;entryDx=0;entryDy=0;" parent="gwo3dm8ZFLVo4d31nm-l-2" source="-Dfz00HVPd_Sje24WFme-1" target="LBMI-nxfrVshLbeg8wKX-3" edge="1">
          <mxGeometry relative="1" as="geometry" />
        </mxCell>
        <mxCell id="LBMI-nxfrVshLbeg8wKX-11" style="edgeStyle=orthogonalEdgeStyle;rounded=0;orthogonalLoop=1;jettySize=auto;html=1;entryX=0.5;entryY=1;entryDx=0;entryDy=0;" parent="gwo3dm8ZFLVo4d31nm-l-2" source="LBMI-nxfrVshLbeg8wKX-9" target="gwo3dm8ZFLVo4d31nm-l-12" edge="1">
          <mxGeometry relative="1" as="geometry" />
        </mxCell>
        <mxCell id="gwo3dm8ZFLVo4d31nm-l-48" style="edgeStyle=orthogonalEdgeStyle;rounded=0;orthogonalLoop=1;jettySize=auto;html=1;entryX=0.5;entryY=0;entryDx=0;entryDy=0;" parent="gwo3dm8ZFLVo4d31nm-l-1" edge="1">
          <mxGeometry relative="1" as="geometry">
            <mxPoint x="1979" y="430" as="targetPoint" />
          </mxGeometry>
        </mxCell>
        <mxCell id="gwo3dm8ZFLVo4d31nm-l-49" value="YES" style="edgeLabel;html=1;align=center;verticalAlign=middle;resizable=0;points=[];" parent="gwo3dm8ZFLVo4d31nm-l-48" vertex="1" connectable="0">
          <mxGeometry x="-0.4503" y="-1" relative="1" as="geometry">
            <mxPoint as="offset" />
          </mxGeometry>
        </mxCell>
      </root>
    </mxGraphModel>
  </diagram>
</mxfile>
